<svg id="light" enable-background="new 0 0 24 24" height="512" viewBox="0 0 24 24" width="512" xmlns="http://www.w3.org/2000/svg"><path d="m10.5 21h-4c-3.584 0-6.5-2.916-6.5-6.5s2.916-6.5 6.5-6.5h4c.276 0 .5.224.5.5v3c0 .276-.224.5-.5.5h-4c-1.379 0-2.5 1.121-2.5 2.5s1.121 2.5 2.5 2.5h4c.276 0 .5.224.5.5v3c0 .276-.224.5-.5.5zm-4-12c-3.032 0-5.5 2.468-5.5 5.5s2.468 5.5 5.5 5.5h3.5v-2h-3.5c-1.93 0-3.5-1.57-3.5-3.5s1.57-3.5 3.5-3.5h3.5v-2z"/><path d="m7.5 12c-.276 0-.5-.224-.5-.5v-3c0-.276.224-.5.5-.5s.5.224.5.5v3c0 .276-.224.5-.5.5z"/><path d="m7.5 21c-.276 0-.5-.224-.5-.5v-3c0-.276.224-.5.5-.5s.5.224.5.5v3c0 .276-.224.5-.5.5z"/><path d="m18.5 24h-7c-.871 0-1.668-.173-2.37-.513-.249-.121-.353-.42-.232-.668.121-.249.42-.354.668-.232.565.274 1.215.413 1.934.413h7c3.321 0 4.5-2.963 4.5-5.5 0-4.257-2.188-8.646-5.219-10.5h-5.701c-.276 0-.5-.224-.5-.5s.224-.5.5-.5h5.84c.089 0 .177.023.253.068 3.377 1.982 5.827 6.789 5.827 11.432 0 3.235-1.7 6.5-5.5 6.5z"/><path d="m18.5 7h-7c-.827 0-1.5-.673-1.5-1.5s.673-1.5 1.5-1.5h7c.827 0 1.5.673 1.5 1.5s-.673 1.5-1.5 1.5zm-7-2c-.275 0-.5.225-.5.5s.225.5.5.5h7c.275 0 .5-.225.5-.5s-.225-.5-.5-.5z"/><path d="m17.5 5c-.146 0-.292-.064-.391-.188-.172-.216-.138-.53.078-.703l2.773-2.219c.258-.206.188-.478.16-.557-.026-.077-.141-.333-.471-.333h-9.299c-.329 0-.444.256-.472.334-.027.079-.098.351.16.557l2.773 2.219c.216.173.25.487.078.703-.173.217-.487.249-.703.078l-2.772-2.219c-.505-.404-.692-1.059-.478-1.669.213-.609.769-1.003 1.415-1.003h9.299c.646 0 1.201.394 1.415 1.003.214.61.026 1.265-.479 1.669l-2.773 2.219c-.093.073-.204.109-.313.109z"/><path d="m15.5 18.5h-2.5c-.276 0-.5-.224-.5-.5s.224-.5.5-.5h2.5c.552 0 1-.448 1-1s-.448-1-1-1h-1c-1.103 0-2-.897-2-2s.897-2 2-2h2.5c.276 0 .5.224.5.5s-.224.5-.5.5h-2.5c-.552 0-1 .448-1 1s.448 1 1 1h1c1.103 0 2 .897 2 2s-.897 2-2 2z"/><path d="m15 20c-.276 0-.5-.224-.5-.5v-1.5c0-.276.224-.5.5-.5s.5.224.5.5v1.5c0 .276-.224.5-.5.5z"/><path d="m15 12.5c-.276 0-.5-.224-.5-.5v-1.5c0-.276.224-.5.5-.5s.5.224.5.5v1.5c0 .276-.224.5-.5.5z"/></svg>