<svg id="light" enable-background="new 0 0 24 24" height="512" viewBox="0 0 24 24" width="512" xmlns="http://www.w3.org/2000/svg"><path d="m21.482 16h-.523c-.276 0-.5-.224-.5-.5s.224-.5.5-.5h.523c.826 0 1.499-.672 1.5-1.498l.018-11.003c0-.826-.673-1.499-1.5-1.499h-19c-.827 0-1.5.673-1.5 1.5v11c0 .827.673 1.5 1.5 1.5h.5c.276 0 .5.224.5.5s-.224.5-.5.5h-.5c-1.378 0-2.5-1.121-2.5-2.5v-11c0-1.379 1.122-2.5 2.5-2.5h19c1.378 0 2.5 1.121 2.5 2.5l-.018 11.004c-.003 1.376-1.124 2.496-2.5 2.496z"/><path d="m12 24c-3.584 0-6.5-2.916-6.5-6.5v-4c0-.276.224-.5.5-.5h3c.276 0 .5.224.5.5v4c0 1.379 1.122 2.5 2.5 2.5s2.5-1.121 2.5-2.5v-4c0-.276.224-.5.5-.5h3c.276 0 .5.224.5.5v4c0 3.584-2.916 6.5-6.5 6.5zm-5.5-10v3.5c0 3.032 2.467 5.5 5.5 5.5s5.5-2.468 5.5-5.5v-3.5h-2v3.5c0 1.93-1.57 3.5-3.5 3.5s-3.5-1.57-3.5-3.5v-3.5z"/><path d="m9 17h-3c-.276 0-.5-.224-.5-.5s.224-.5.5-.5h3c.276 0 .5.224.5.5s-.224.5-.5.5z"/><path d="m18 17h-3c-.276 0-.5-.224-.5-.5s.224-.5.5-.5h3c.276 0 .5.224.5.5s-.224.5-.5.5z"/><path d="m12 11c-.276 0-.5-.224-.5-.5v-1c0-.276.224-.5.5-.5s.5.224.5.5v1c0 .276-.224.5-.5.5z"/><path d="m12.25 10h-1.75c-.276 0-.5-.224-.5-.5s.224-.5.5-.5h1.75c.414 0 .75-.337.75-.75s-.336-.75-.75-.75h-.5c-.965 0-1.75-.785-1.75-1.75s.785-1.75 1.75-1.75h1.75c.276 0 .5.224.5.5s-.224.5-.5.5h-1.75c-.414 0-.75.337-.75.75s.336.75.75.75h.5c.965 0 1.75.785 1.75 1.75s-.785 1.75-1.75 1.75z"/><path d="m12 5c-.276 0-.5-.224-.5-.5v-1c0-.276.224-.5.5-.5s.5.224.5.5v1c0 .276-.224.5-.5.5z"/></svg>