<svg id="light" enable-background="new 0 0 24 24" height="512" viewBox="0 0 24 24" width="512" xmlns="http://www.w3.org/2000/svg"><path d="m10.5 21h-8c-1.379 0-2.5-1.121-2.5-2.5v-16c0-1.379 1.121-2.5 2.5-2.5h11c1.379 0 2.5 1.121 2.5 2.5v7c0 .276-.224.5-.5.5s-.5-.224-.5-.5v-7c0-.827-.673-1.5-1.5-1.5h-11c-.827 0-1.5.673-1.5 1.5v16c0 .827.673 1.5 1.5 1.5h8c.276 0 .5.224.5.5s-.224.5-.5.5z"/><path d="m9.5 15c-.276 0-.5-.224-.5-.5v-9c0-.276.224-.5.5-.5h3c.276 0 .5.224.5.5v4c0 .276-.224.5-.5.5s-.5-.224-.5-.5v-3.5h-2v8.5c0 .276-.224.5-.5.5z"/><path d="m6.5 15h-3c-.276 0-.5-.224-.5-.5v-5c0-.276.224-.5.5-.5h3c.276 0 .5.224.5.5v5c0 .276-.224.5-.5.5zm-2.5-1h2v-4h-2z"/><path d="m9.5 15h-7c-.276 0-.5-.224-.5-.5s.224-.5.5-.5h7c.276 0 .5.224.5.5s-.224.5-.5.5z"/><path d="m22.5 20.02h-1c-.827 0-1.5-.673-1.5-1.5v-5c0-.827.673-1.5 1.5-1.5h1c.827 0 1.5.673 1.5 1.5v5c0 .827-.673 1.5-1.5 1.5zm-1-7c-.275 0-.5.225-.5.5v5c0 .275.225.5.5.5h1c.275 0 .5-.225.5-.5v-5c0-.275-.225-.5-.5-.5z"/><path d="m17.86 23.75c-.805 0-1.67-.738-1.67-2.36 0-.553.095-1.017.207-1.37h-1.987c-1.329 0-2.41-1.081-2.41-2.409 0-.032.124-2.541.61-3.563l-.044-.008c.188-1.151 1.234-2.02 2.434-2.02h.76c2.704 0 4.286.675 4.988 1.077.24.137.323.442.186.682-.138.241-.445.321-.682.186-.496-.284-1.928-.944-4.492-.944h-.76c-.703 0-1.339.519-1.447 1.182-.002.015-.005.029-.009.044-.062.3-.53 3.087-.544 3.374 0 .769.633 1.4 1.41 1.4h2.75c.185 0 .354.102.441.265s.077.36-.026.514c-.002.003-.385.605-.385 1.592 0 .998.4 1.36.67 1.36.093-.013.199-.155.199-.9 0-1.547 1.542-2.679 2.206-3.094.233-.146.542-.076.688.159.146.233.075.542-.159.688-.406.255-1.735 1.169-1.735 2.246.001.616.001 1.899-1.199 1.899z"/></svg>