<svg id="light" enable-background="new 0 0 24 24" height="512" viewBox="0 0 24 24" width="512" xmlns="http://www.w3.org/2000/svg"><path d="m20.423 24h-1.846c-.537 0-1.115-.404-1.115-1.291v-1.304c0-.531-.272-1.049-.747-1.421-1.117-.876-1.741-2.188-1.714-3.6.046-2.382 2.033-4.35 4.432-4.385 1.25-.019 2.371.443 3.236 1.298.858.847 1.331 1.974 1.331 3.176 0 1.346-.602 2.607-1.651 3.461-.515.419-.811.993-.811 1.573v1.382c0 .613-.5 1.111-1.115 1.111zm-.925-11c-.017 0-.033 0-.051 0-1.833.027-3.412 1.586-3.446 3.404-.021 1.095.464 2.113 1.331 2.793.718.563 1.13 1.368 1.13 2.208v1.304c0 .03.003.291.115.291h1.846c.063 0 .115-.05.115-.111v-1.382c0-.883.43-1.739 1.18-2.349.814-.663 1.282-1.641 1.282-2.685 0-.932-.367-1.807-1.032-2.463-.662-.653-1.537-1.01-2.47-1.01z"/><path d="m21.038 22.167h-3.076c-.276 0-.5-.224-.5-.5s.224-.5.5-.5h3.076c.276 0 .5.224.5.5s-.224.5-.5.5z"/><path d="m12.5 21h-10c-1.379 0-2.5-1.121-2.5-2.5v-16c0-1.379 1.121-2.5 2.5-2.5h11c1.379 0 2.5 1.121 2.5 2.5v8c0 .276-.224.5-.5.5s-.5-.224-.5-.5v-8c0-.827-.673-1.5-1.5-1.5h-11c-.827 0-1.5.673-1.5 1.5v16c0 .827.673 1.5 1.5 1.5h10c.276 0 .5.224.5.5s-.224.5-.5.5z"/><path d="m12.5 15c-.276 0-.5-.224-.5-.5v-8.5h-2v8.5c0 .276-.224.5-.5.5s-.5-.224-.5-.5v-9c0-.276.224-.5.5-.5h3c.276 0 .5.224.5.5v9c0 .276-.224.5-.5.5z"/><path d="m6.5 15h-3c-.276 0-.5-.224-.5-.5v-5c0-.276.224-.5.5-.5h3c.276 0 .5.224.5.5v5c0 .276-.224.5-.5.5zm-2.5-1h2v-4h-2z"/><path d="m12.5 15h-10c-.276 0-.5-.224-.5-.5s.224-.5.5-.5h10c.276 0 .5.224.5.5s-.224.5-.5.5z"/></svg>