<svg id="light" enable-background="new 0 0 24 24" height="512" viewBox="0 0 24 24" width="512" xmlns="http://www.w3.org/2000/svg"><path d="m8.5 21h-6c-1.378 0-2.5-1.121-2.5-2.5v-16c0-1.378 1.122-2.5 2.5-2.5h11c1.378 0 2.5 1.122 2.5 2.5v6c0 .276-.224.5-.5.5s-.5-.224-.5-.5v-6c0-.827-.673-1.5-1.5-1.5h-11c-.827 0-1.5.673-1.5 1.5v16c0 .827.673 1.5 1.5 1.5h6c.276 0 .5.224.5.5s-.224.5-.5.5z"/><path d="m9.5 15c-.276 0-.5-.224-.5-.5v-9c0-.276.224-.5.5-.5h3c.276 0 .5.224.5.5v7.02c0 .276-.224.5-.5.5s-.5-.224-.5-.5v-6.52h-2v8.5c0 .276-.224.5-.5.5z"/><path d="m6.5 15h-3c-.276 0-.5-.224-.5-.5v-5c0-.276.224-.5.5-.5h3c.276 0 .5.224.5.5v5c0 .276-.224.5-.5.5zm-2.5-1h2v-4h-2z"/><path d="m10.5 15h-8c-.276 0-.5-.224-.5-.5s.224-.5.5-.5h8c.276 0 .5.224.5.5s-.224.5-.5.5z"/><path d="m14.5 24h-1c-.827 0-1.5-.673-1.5-1.5v-5c0-.827.673-1.5 1.5-1.5h1c.827 0 1.5.673 1.5 1.5v5c0 .827-.673 1.5-1.5 1.5zm-1-7c-.276 0-.5.225-.5.5v5c0 .275.224.5.5.5h1c.276 0 .5-.225.5-.5v-5c0-.275-.224-.5-.5-.5z"/><path d="m21 24h-.76c-2.699 0-4.284-.674-4.988-1.075-.24-.137-.324-.442-.187-.683s.441-.323.682-.187c.499.285 1.933.945 4.493.945h.76c.703 0 1.338-.519 1.446-1.18.003-.016.006-.031.01-.046.06-.293.531-3.097.544-3.373 0-.768-.633-1.401-1.41-1.401h-2.75c-.185 0-.354-.102-.441-.265s-.077-.36.026-.514c.001-.003.385-.605.385-1.592 0-.998-.401-1.36-.67-1.36-.094.013-.2.155-.2.9 0 1.549-1.542 2.68-2.205 3.094-.235.146-.543.076-.689-.159-.146-.234-.075-.542.159-.688.407-.255 1.735-1.168 1.735-2.246 0-.616 0-1.9 1.2-1.9.804 0 1.67.739 1.67 2.36 0 .553-.095 1.017-.207 1.37h1.987c1.329 0 2.41 1.081 2.41 2.41 0 .032-.124 2.541-.61 3.563l.044.007c-.188 1.152-1.234 2.02-2.434 2.02z"/></svg>