<svg id="light" enable-background="new 0 0 24 24" height="512" viewBox="0 0 24 24" width="512" xmlns="http://www.w3.org/2000/svg"><path d="m17.5 24c-.105 0-.21-.033-.299-.099-.254-.189-6.201-4.67-6.201-8.271 0-2.002 1.629-3.63 3.631-3.63 1.14 0 2.192.531 2.869 1.404.677-.873 1.729-1.404 2.869-1.404 2.002 0 3.631 1.628 3.631 3.63 0 3.601-5.947 8.082-6.201 8.271-.089.066-.194.099-.299.099zm-2.869-11c-1.45 0-2.631 1.18-2.631 2.63 0 2.43 3.723 5.849 5.5 7.24 1.776-1.392 5.5-4.813 5.5-7.24 0-1.45-1.181-2.63-2.631-2.63-1.048 0-1.994.619-2.41 1.578-.16.365-.758.365-.918 0-.416-.959-1.362-1.578-2.41-1.578z"/><path d="m10.5 21h-8c-1.379 0-2.5-1.122-2.5-2.5v-16c0-1.378 1.121-2.5 2.5-2.5h11c1.379 0 2.5 1.122 2.5 2.5v7c0 .276-.224.5-.5.5s-.5-.224-.5-.5v-7c0-.827-.673-1.5-1.5-1.5h-11c-.827 0-1.5.673-1.5 1.5v16c0 .827.673 1.5 1.5 1.5h8c.276 0 .5.224.5.5s-.224.5-.5.5z"/><path d="m9.5 13c-.276 0-.5-.224-.5-.5v-7c0-.276.224-.5.5-.5h3c.276 0 .5.224.5.5v4.52c0 .276-.224.5-.5.5s-.5-.224-.5-.5v-4.02h-2v6.5c0 .276-.224.5-.5.5z"/><path d="m6.5 15h-3c-.276 0-.5-.224-.5-.5v-5c0-.276.224-.5.5-.5h3c.276 0 .5.224.5.5v5c0 .276-.224.5-.5.5zm-2.5-1h2v-4h-2z"/><path d="m8.52 15h-6.02c-.276 0-.5-.224-.5-.5s.224-.5.5-.5h6.02c.276 0 .5.224.5.5s-.224.5-.5.5z"/></svg>