<svg id="light" enable-background="new 0 0 24 24" height="512" viewBox="0 0 24 24" width="512" xmlns="http://www.w3.org/2000/svg"><path d="m22.5 23h-10c-.827 0-1.5-.673-1.5-1.5v-6c0-.827.673-1.5 1.5-1.5h10c.827 0 1.5.673 1.5 1.5v6c0 .827-.673 1.5-1.5 1.5zm-10-8c-.276 0-.5.225-.5.5v6c0 .275.224.5.5.5h10c.276 0 .5-.225.5-.5v-6c0-.275-.224-.5-.5-.5z"/><path d="m17.5 19c-.1 0-.199-.029-.285-.089l-5.54-3.84c-.227-.157-.284-.469-.126-.696.157-.227.467-.282.696-.126l5.255 3.643 5.255-3.643c.227-.156.538-.101.696.126.157.228.101.539-.126.696l-5.54 3.84c-.086.06-.185.089-.285.089z"/><path d="m8.5 21h-6c-1.378 0-2.5-1.121-2.5-2.5v-16c0-1.379 1.122-2.5 2.5-2.5h11c1.378 0 2.5 1.121 2.5 2.5v9c0 .276-.224.5-.5.5s-.5-.224-.5-.5v-9c0-.827-.673-1.5-1.5-1.5h-11c-.827 0-1.5.673-1.5 1.5v16c0 .827.673 1.5 1.5 1.5h6c.276 0 .5.224.5.5s-.224.5-.5.5z"/><path d="m9.5 13c-.276 0-.5-.224-.5-.5v-7c0-.276.224-.5.5-.5h3c.276 0 .5.224.5.5v6.02c0 .276-.224.5-.5.5s-.5-.224-.5-.5v-5.52h-2v6.5c0 .276-.224.5-.5.5z"/><path d="m6.5 15h-3c-.276 0-.5-.224-.5-.5v-5c0-.276.224-.5.5-.5h3c.276 0 .5.224.5.5v5c0 .276-.224.5-.5.5zm-2.5-1h2v-4h-2z"/><path d="m8.5 15h-6c-.276 0-.5-.224-.5-.5s.224-.5.5-.5h6c.276 0 .5.224.5.5s-.224.5-.5.5z"/></svg>