<svg id="light" enable-background="new 0 0 24 24" height="512" viewBox="0 0 24 24" width="512" xmlns="http://www.w3.org/2000/svg"><path d="m18 24c-3.309 0-6-2.691-6-6 0-.276.224-.5.5-.5s.5.224.5.5c0 2.757 2.243 5 5 5s5-2.243 5-5-2.243-5-5-5c-1.502 0-2.907.662-3.854 1.817-.175.214-.49.244-.704.069-.213-.175-.244-.49-.069-.704 1.138-1.386 2.824-2.182 4.627-2.182 3.309 0 6 2.691 6 6s-2.691 6-6 6z"/><path d="m15.5 15h-2c-.276 0-.5-.224-.5-.5v-2c0-.276.224-.5.5-.5s.5.224.5.5v1.5h1.5c.276 0 .5.224.5.5s-.224.5-.5.5z"/><path d="m9.5 21h-7c-1.379 0-2.5-1.121-2.5-2.5v-16c0-1.378 1.121-2.5 2.5-2.5h11c1.379 0 2.5 1.122 2.5 2.5v7c0 .276-.224.5-.5.5s-.5-.224-.5-.5v-7c0-.827-.673-1.5-1.5-1.5h-11c-.827 0-1.5.673-1.5 1.5v16c0 .827.673 1.5 1.5 1.5h7c.276 0 .5.224.5.5s-.224.5-.5.5z"/><path d="m9.5 13.89c-.276 0-.5-.224-.5-.5v-7.89c0-.276.224-.5.5-.5h3c.276 0 .5.224.5.5v4.52c0 .276-.224.5-.5.5s-.5-.224-.5-.5v-4.02h-2v7.39c0 .276-.224.5-.5.5z"/><path d="m6.5 15h-3c-.276 0-.5-.224-.5-.5v-5c0-.276.224-.5.5-.5h3c.276 0 .5.224.5.5v5c0 .276-.224.5-.5.5zm-2.5-1h2v-4h-2z"/><path d="m9.02 15h-6.52c-.276 0-.5-.224-.5-.5s.224-.5.5-.5h6.52c.276 0 .5.224.5.5s-.224.5-.5.5z"/></svg>