<svg id="light" enable-background="new 0 0 24 24" height="512" viewBox="0 0 24 24" width="512" xmlns="http://www.w3.org/2000/svg"><path d="m18 20c-1.379 0-2.5-1.121-2.5-2.5s1.121-2.5 2.5-2.5 2.5 1.121 2.5 2.5-1.121 2.5-2.5 2.5zm0-4c-.827 0-1.5.673-1.5 1.5s.673 1.5 1.5 1.5 1.5-.673 1.5-1.5-.673-1.5-1.5-1.5z"/><path d="m18.774 24h-1.549c-.51 0-.932-.388-.981-.902l-.123-1.273c-.29-.133-.567-.299-.829-.495l-1.121.521c-.471.22-1.014.039-1.267-.414l-.775-1.382c-.247-.441-.13-1.001.274-1.302l1.001-.741c-.019-.155-.033-.328-.033-.511s.015-.355.033-.511l-1-.741c-.405-.301-.522-.86-.274-1.303l.773-1.38c.254-.454.798-.63 1.267-.416l1.122.521c.262-.196.539-.362.829-.495l.123-1.274c.05-.514.472-.902.982-.902h1.549c.51 0 .932.388.981.903l.123 1.273c.29.133.567.299.829.495l1.121-.521c.472-.219 1.014-.038 1.267.414l.775 1.382c.247.441.13 1.001-.274 1.302l-1.001.741c.019.155.033.328.033.511s-.015.355-.033.511l1 .741c.405.301.522.86.274 1.303l-.773 1.38c-.254.454-.799.631-1.267.416l-1.122-.521c-.262.196-.539.362-.829.495l-.123 1.273c-.05.514-.472.902-.982.902zm-3.411-3.755c.117 0 .234.041.326.121.328.283.69.5 1.075.644.18.067.305.23.323.421l.152 1.571 1.535-.002.138-1.569c.019-.19.144-.354.323-.421.385-.144.747-.36 1.075-.644.146-.127.358-.157.537-.074l1.403.651.747-1.378-1.239-.93c-.151-.111-.227-.3-.195-.486.037-.211.065-.427.065-.649s-.028-.438-.065-.649c-.031-.187.044-.375.195-.486l1.242-.92-.776-1.392-1.376.654c-.179.082-.391.055-.537-.074-.328-.283-.69-.5-1.075-.644-.18-.067-.305-.23-.323-.421l-.152-1.571-1.535.003-.138 1.569c-.019.19-.144.354-.323.421-.385.144-.747.36-1.075.644-.148.127-.36.156-.537.074l-1.403-.651-.747 1.378 1.239.93c.151.111.227.3.195.486-.037.211-.065.427-.065.649s.028.438.065.649c.031.187-.044.375-.195.486l-1.242.92.776 1.392 1.376-.654c.068-.032.14-.048.211-.048z"/><path d="m9.5 21h-7c-1.379 0-2.5-1.121-2.5-2.5v-16c0-1.378 1.121-2.5 2.5-2.5h11c1.379 0 2.5 1.122 2.5 2.5v6c0 .276-.224.5-.5.5s-.5-.224-.5-.5v-6c0-.827-.673-1.5-1.5-1.5h-11c-.827 0-1.5.673-1.5 1.5v16c0 .827.673 1.5 1.5 1.5h7c.276 0 .5.224.5.5s-.224.5-.5.5z"/><path d="m9.5 15c-.276 0-.5-.224-.5-.5v-9c0-.276.224-.5.5-.5h3c.276 0 .5.224.5.5v5c0 .276-.224.5-.5.5s-.5-.224-.5-.5v-4.5h-2v8.5c0 .276-.224.5-.5.5z"/><path d="m6.5 15h-3c-.276 0-.5-.224-.5-.5v-5c0-.276.224-.5.5-.5h3c.276 0 .5.224.5.5v5c0 .276-.224.5-.5.5zm-2.5-1h2v-4h-2z"/><path d="m9.5 15h-7c-.276 0-.5-.224-.5-.5s.224-.5.5-.5h7c.276 0 .5.224.5.5s-.224.5-.5.5z"/></svg>