<svg id="light" enable-background="new 0 0 24 24" height="512" viewBox="0 0 24 24" width="512" xmlns="http://www.w3.org/2000/svg"><path d="m22 24c-1.103 0-2-.897-2-2s.897-2 2-2 2 .897 2 2-.897 2-2 2zm0-3c-.551 0-1 .448-1 1s.449 1 1 1 1-.448 1-1-.449-1-1-1z"/><path d="m15 20c-1.103 0-2-.897-2-2s.897-2 2-2 2 .897 2 2-.897 2-2 2zm0-3c-.551 0-1 .448-1 1s.449 1 1 1 1-.448 1-1-.449-1-1-1z"/><path d="m20.709 21.76c-.084 0-.169-.021-.247-.065l-4.42-2.52c-.24-.137-.324-.442-.187-.683.136-.24.441-.322.682-.187l4.42 2.52c.24.137.324.442.187.683-.092.161-.261.252-.435.252z"/><path d="m16.291 17.76c-.174 0-.343-.091-.435-.252-.137-.24-.053-.546.187-.683l4.42-2.52c.24-.136.545-.053.682.187s.053.546-.187.683l-4.42 2.52c-.079.043-.163.065-.247.065z"/><path d="m10.5 21h-8c-1.378 0-2.5-1.121-2.5-2.5v-16c0-1.379 1.122-2.5 2.5-2.5h11c1.378 0 2.5 1.121 2.5 2.5v11c0 .276-.224.5-.5.5s-.5-.224-.5-.5v-11c0-.827-.673-1.5-1.5-1.5h-11c-.827 0-1.5.673-1.5 1.5v16c0 .827.673 1.5 1.5 1.5h8c.276 0 .5.224.5.5s-.224.5-.5.5z"/><path d="m12.5 15.02c-.276 0-.5-.224-.5-.5v-8.52h-2v8.5c0 .276-.224.5-.5.5s-.5-.224-.5-.5v-9c0-.276.224-.5.5-.5h3c.276 0 .5.224.5.5v9.02c0 .276-.224.5-.5.5z"/><path d="m6.5 15h-3c-.276 0-.5-.224-.5-.5v-5c0-.276.224-.5.5-.5h3c.276 0 .5.224.5.5v5c0 .276-.224.5-.5.5zm-2.5-1h2v-4h-2z"/><path d="m12.5 15h-10c-.276 0-.5-.224-.5-.5s.224-.5.5-.5h10c.276 0 .5.224.5.5s-.224.5-.5.5z"/><path d="m22 16c-1.103 0-2-.897-2-2s.897-2 2-2 2 .897 2 2-.897 2-2 2zm0-3c-.551 0-1 .448-1 1s.449 1 1 1 1-.448 1-1-.449-1-1-1z"/></svg>