<svg id="light" enable-background="new 0 0 24 24" height="512" viewBox="0 0 24 24" width="512" xmlns="http://www.w3.org/2000/svg"><path d="m15.5 24c-.276 0-.5-.224-.5-.5v-2c0-3.584 2.916-6.5 6.5-6.5h2c.276 0 .5.224.5.5s-.224.5-.5.5h-2c-3.033 0-5.5 2.468-5.5 5.5v2c0 .276-.224.5-.5.5z"/><path d="m20 19c-.141 0-.281-.06-.379-.175-.18-.209-.156-.525.054-.705l3.057-2.62-3.057-2.621c-.21-.18-.234-.495-.054-.705s.496-.233.705-.054l3.5 3c.11.096.174.234.174.38s-.064.284-.175.38l-3.5 3c-.094.08-.21.12-.325.12z"/><path d="m12.5 21h-10c-1.378 0-2.5-1.121-2.5-2.5v-16c0-1.378 1.122-2.5 2.5-2.5h11c1.378 0 2.5 1.122 2.5 2.5v12c0 .276-.224.5-.5.5s-.5-.224-.5-.5v-12c0-.827-.673-1.5-1.5-1.5h-11c-.827 0-1.5.673-1.5 1.5v16c0 .827.673 1.5 1.5 1.5h10c.276 0 .5.224.5.5s-.224.5-.5.5z"/><path d="m12.5 15c-.276 0-.5-.224-.5-.5v-8.5h-2v8.5c0 .276-.224.5-.5.5s-.5-.224-.5-.5v-9c0-.276.224-.5.5-.5h3c.276 0 .5.224.5.5v9c0 .276-.224.5-.5.5z"/><path d="m6.5 15h-3c-.276 0-.5-.224-.5-.5v-5c0-.276.224-.5.5-.5h3c.276 0 .5.224.5.5v5c0 .276-.224.5-.5.5zm-2.5-1h2v-4h-2z"/><path d="m13.5 15h-11c-.276 0-.5-.224-.5-.5s.224-.5.5-.5h11c.276 0 .5.224.5.5s-.224.5-.5.5z"/></svg>