<svg id="light" enable-background="new 0 0 24 24" height="512" viewBox="0 0 24 24" width="512" xmlns="http://www.w3.org/2000/svg"><path d="m4.5 24c-.064 0-.13-.012-.191-.038-.187-.077-.309-.26-.309-.462v-4.5h-1.5c-1.379 0-2.5-1.122-2.5-2.5v-14c0-1.378 1.121-2.5 2.5-2.5h19c1.379 0 2.5 1.122 2.5 2.5v14c0 1.378-1.121 2.5-2.5 2.5h-11.793l-4.854 4.854c-.095.095-.223.146-.353.146zm-2-23c-.827 0-1.5.673-1.5 1.5v14c0 .827.673 1.5 1.5 1.5h2c.276 0 .5.224.5.5v3.793l4.146-4.146c.094-.094.221-.147.354-.147h12c.827 0 1.5-.673 1.5-1.5v-14c0-.827-.673-1.5-1.5-1.5z"/><path d="m16.5 14h-3c-.276 0-.5-.224-.5-.5v-9c0-.276.224-.5.5-.5h3c.276 0 .5.224.5.5v9c0 .276-.224.5-.5.5zm-2.5-1h2v-8h-2z"/><path d="m10.5 14h-3c-.276 0-.5-.224-.5-.5v-5c0-.276.224-.5.5-.5h3c.276 0 .5.224.5.5v5c0 .276-.224.5-.5.5zm-2.5-1h2v-4h-2z"/><path d="m17.5 14h-11c-.276 0-.5-.224-.5-.5s.224-.5.5-.5h11c.276 0 .5.224.5.5s-.224.5-.5.5z"/></svg>