<svg id="light" enable-background="new 0 0 24 24" height="512" viewBox="0 0 24 24" width="512" xmlns="http://www.w3.org/2000/svg"><path d="m7 24c-3.394 0-7-1.052-7-3 0-.276.224-.5.5-.5s.5.224.5.5c0 .835 2.282 2 6 2s6-1.165 6-2c0-.276.224-.5.5-.5s.5.224.5.5c0 1.948-3.606 3-7 3z"/><path d="m7 21c-3.394 0-7-1.052-7-3 0-.276.224-.5.5-.5s.5.224.5.5c0 .835 2.282 2 6 2s6-1.165 6-2c0-.276.224-.5.5-.5s.5.224.5.5c0 1.948-3.606 3-7 3z"/><path d="m7 18c-3.394 0-7-1.052-7-3s3.606-3 7-3 7 1.052 7 3-3.606 3-7 3zm0-5c-3.718 0-6 1.165-6 2s2.282 2 6 2 6-1.165 6-2-2.282-2-6-2z"/><path d="m.5 21.5c-.276 0-.5-.224-.5-.5v-6c0-.276.224-.5.5-.5s.5.224.5.5v6c0 .276-.224.5-.5.5z"/><path d="m13.5 21.5c-.276 0-.5-.224-.5-.5v-6c0-.276.224-.5.5-.5s.5.224.5.5v6c0 .276-.224.5-.5.5z"/><path d="m17 12c-3.394 0-7-1.052-7-3 0-.276.224-.5.5-.5s.5.224.5.5c0 .835 2.282 2 6 2s6-1.165 6-2c0-.276.224-.5.5-.5s.5.224.5.5c0 1.948-3.606 3-7 3z"/><path d="m17 18c-.579 0-1.087-.023-1.553-.073-.274-.029-.474-.275-.444-.55s.274-.475.55-.444c.429.045.903.067 1.447.067 3.718 0 6-1.165 6-2 0-.276.224-.5.5-.5s.5.224.5.5c0 1.948-3.606 3-7 3z"/><path d="m17 21c-.579 0-1.087-.023-1.553-.073-.274-.029-.474-.275-.444-.55.029-.275.274-.479.55-.444.429.045.903.067 1.447.067 3.718 0 6-1.165 6-2 0-.276.224-.5.5-.5s.5.224.5.5c0 1.948-3.606 3-7 3z"/><path d="m17 15c-.579 0-1.087-.023-1.553-.073-.274-.029-.474-.275-.444-.55.029-.275.274-.477.55-.444.429.045.903.067 1.447.067 3.718 0 6-1.165 6-2 0-.276.224-.5.5-.5s.5.224.5.5c0 1.948-3.606 3-7 3z"/><path d="m17 9c-3.394 0-7-1.052-7-3s3.606-3 7-3 7 1.052 7 3-3.606 3-7 3zm0-5c-3.718 0-6 1.165-6 2s2.282 2 6 2 6-1.165 6-2-2.282-2-6-2z"/><path d="m10.5 9.5c-.276 0-.5-.224-.5-.5v-3c0-.276.224-.5.5-.5s.5.224.5.5v3c0 .276-.224.5-.5.5z"/><path d="m23.5 18.5c-.276 0-.5-.224-.5-.5v-12c0-.276.224-.5.5-.5s.5.224.5.5v12c0 .276-.224.5-.5.5z"/><path d="m.5 7c-.128 0-.256-.049-.354-.146-.195-.195-.195-.512 0-.707l2.5-2.5c.153-.153.384-.189.578-.094l1.678.839 3.245-3.245c.195-.195.512-.195.707 0s.195.512 0 .707l-3.5 3.5c-.153.151-.384.188-.578.093l-1.677-.839-2.245 2.246c-.098.097-.226.146-.354.146z"/><path d="m8.5 5c-.276 0-.5-.224-.5-.5v-2.5h-2.5c-.276 0-.5-.224-.5-.5s.224-.5.5-.5h3c.276 0 .5.224.5.5v3c0 .276-.224.5-.5.5z"/></svg>