<svg id="light" enable-background="new 0 0 24 24" height="512" viewBox="0 0 24 24" width="512" xmlns="http://www.w3.org/2000/svg"><path d="m16.5 24h-9c-.276 0-.5-.224-.5-.5v-12c0-.276.224-.5.5-.5h9c.276 0 .5.224.5.5v12c0 .276-.224.5-.5.5zm-8.5-1h8v-11h-8z"/><path d="m23.5 24h-7c-.276 0-.5-.224-.5-.5v-4c0-.276.224-.5.5-.5h7c.276 0 .5.224.5.5v4c0 .276-.224.5-.5.5zm-6.5-1h6v-3h-6z"/><path d="m7.5 24h-7c-.276 0-.5-.224-.5-.5v-6c0-.276.224-.5.5-.5h7c.276 0 .5.224.5.5v6c0 .276-.224.5-.5.5zm-6.5-1h6v-5h-6z"/><path d="m12 20c-.276 0-.5-.224-.5-.5v-3.5c-.276 0-.5-.224-.5-.5s.224-.5.5-.5h.5c.276 0 .5.224.5.5v4c0 .276-.224.5-.5.5z"/><path d="m12 9c-.276 0-.5-.224-.5-.5v-1c0-.276.224-.5.5-.5s.5.224.5.5v1c0 .276-.224.5-.5.5z"/><path d="m12.25 8h-1.75c-.276 0-.5-.224-.5-.5s.224-.5.5-.5h1.75c.414 0 .75-.337.75-.75s-.336-.75-.75-.75h-.5c-.965 0-1.75-.785-1.75-1.75s.785-1.75 1.75-1.75h1.75c.276 0 .5.224.5.5s-.224.5-.5.5h-1.75c-.414 0-.75.337-.75.75s.336.75.75.75h.5c.965 0 1.75.785 1.75 1.75s-.785 1.75-1.75 1.75z"/><path d="m12 3c-.276 0-.5-.224-.5-.5v-1c0-.276.224-.5.5-.5s.5.224.5.5v1c0 .276-.224.5-.5.5z"/></svg>