<svg id="light" enable-background="new 0 0 24 24" height="512" viewBox="0 0 24 24" width="512" xmlns="http://www.w3.org/2000/svg"><path d="m12.5 24h-7c-3.8 0-5.5-3.265-5.5-6.5 0-4.643 2.45-9.45 5.827-11.432.076-.045.164-.068.253-.068h5.84c.276 0 .5.224.5.5s-.224.5-.5.5h-5.701c-3.031 1.854-5.219 6.243-5.219 10.5 0 2.537 1.179 5.5 4.5 5.5h7c3.321 0 4.5-2.963 4.5-5.5 0-.472-.028-.958-.084-1.443-.031-.274.166-.522.44-.554.271-.031.521.165.554.44.06.524.09 1.047.09 1.557 0 3.235-1.7 6.5-5.5 6.5z"/><path d="m12.5 7h-7c-.827 0-1.5-.673-1.5-1.5s.673-1.5 1.5-1.5h7c.827 0 1.5.673 1.5 1.5s-.673 1.5-1.5 1.5zm-7-2c-.275 0-.5.225-.5.5s.225.5.5.5h7c.275 0 .5-.225.5-.5s-.225-.5-.5-.5z"/><path d="m11.5 5c-.146 0-.292-.064-.391-.188-.172-.216-.138-.53.078-.703l2.773-2.219c.258-.206.188-.478.16-.557-.026-.077-.141-.333-.471-.333h-9.298c-.33 0-.445.256-.472.334-.027.079-.098.351.16.557l2.773 2.219c.216.173.25.487.078.703s-.487.249-.702.078l-2.774-2.219c-.505-.404-.692-1.059-.478-1.669.213-.609.769-1.003 1.415-1.003h9.299c.646 0 1.201.394 1.415 1.003.214.61.026 1.265-.479 1.669l-2.773 2.219c-.093.073-.204.109-.313.109z"/><path d="m9.5 18.5h-2.5c-.276 0-.5-.224-.5-.5s.224-.5.5-.5h2.5c.552 0 1-.448 1-1s-.448-1-1-1h-1c-1.103 0-2-.897-2-2s.897-2 2-2h2.5c.276 0 .5.224.5.5s-.224.5-.5.5h-2.5c-.552 0-1 .448-1 1s.448 1 1 1h1c1.103 0 2 .897 2 2s-.897 2-2 2z"/><path d="m9 20c-.276 0-.5-.224-.5-.5v-1.5c0-.276.224-.5.5-.5s.5.224.5.5v1.5c0 .276-.224.5-.5.5z"/><path d="m9 12.5c-.276 0-.5-.224-.5-.5v-1.5c0-.276.224-.5.5-.5s.5.224.5.5v1.5c0 .276-.224.5-.5.5z"/><path d="m22.5 14h-3c-.276 0-.5-.224-.5-.5v-9c0-.276.224-.5.5-.5h3c.276 0 .5.224.5.5v9c0 .276-.224.5-.5.5zm-2.5-1h2v-8h-2z"/><path d="m16.5 14h-3c-.276 0-.5-.224-.5-.5v-5c0-.276.224-.5.5-.5h3c.276 0 .5.224.5.5v5c0 .276-.224.5-.5.5zm-2.5-1h2v-4h-2z"/><path d="m23.5 14h-11c-.276 0-.5-.224-.5-.5s.224-.5.5-.5h11c.276 0 .5.224.5.5s-.224.5-.5.5z"/></svg>