<svg id="light" enable-background="new 0 0 24 24" height="512" viewBox="0 0 24 24" width="512" xmlns="http://www.w3.org/2000/svg"><path d="m23.5 12.5h-23c-.276 0-.5-.224-.5-.5s.224-.5.5-.5h23c.276 0 .5.224.5.5s-.224.5-.5.5z"/><path d="m3 9c-1.654 0-3-1.346-3-3s1.346-3 3-3 3 1.346 3 3-1.346 3-3 3zm0-5c-1.103 0-2 .897-2 2s.897 2 2 2 2-.897 2-2-.897-2-2-2z"/><path d="m12 6c-1.654 0-3-1.346-3-3s1.346-3 3-3 3 1.346 3 3-1.346 3-3 3zm0-5c-1.103 0-2 .897-2 2s.897 2 2 2 2-.897 2-2-.897-2-2-2z"/><path d="m21 7c-1.654 0-3-1.346-3-3s1.346-3 3-3 3 1.346 3 3-1.346 3-3 3zm0-5c-1.103 0-2 .897-2 2s.897 2 2 2 2-.897 2-2-.897-2-2-2z"/><path d="m5.37 5.71c-.209 0-.404-.133-.475-.342-.086-.262.055-.545.317-.633l4.26-1.42c.262-.086.545.055.633.316.087.262-.055.545-.316.633l-4.26 1.42c-.053.018-.106.026-.159.026z"/><path d="m18.511 4.22c-.019 0-.037-.001-.056-.003l-4.02-.439c-.274-.03-.473-.277-.442-.552.03-.275.282-.475.552-.442l4.02.439c.274.03.473.277.442.552-.028.255-.245.445-.496.445z"/><path d="m3 24c-1.654 0-3-1.346-3-3s1.346-3 3-3 3 1.346 3 3-1.346 3-3 3zm0-5c-1.103 0-2 .897-2 2s.897 2 2 2 2-.897 2-2-.897-2-2-2z"/><path d="m12 21c-1.654 0-3-1.346-3-3s1.346-3 3-3 3 1.346 3 3-1.346 3-3 3zm0-5c-1.103 0-2 .897-2 2s.897 2 2 2 2-.897 2-2-.897-2-2-2z"/><path d="m21 22c-1.654 0-3-1.346-3-3s1.346-3 3-3 3 1.346 3 3-1.346 3-3 3zm0-5c-1.103 0-2 .897-2 2s.897 2 2 2 2-.897 2-2-.897-2-2-2z"/><path d="m5.37 20.71c-.209 0-.404-.133-.475-.342-.087-.262.055-.545.316-.633l4.26-1.42c.262-.086.545.055.633.316.087.262-.055.545-.316.633l-4.26 1.42c-.052.018-.105.026-.158.026z"/><path d="m18.511 19.22c-.019 0-.037-.001-.056-.003l-4.02-.439c-.274-.03-.473-.277-.442-.552.03-.275.282-.473.552-.442l4.02.439c.274.03.473.277.442.552-.028.255-.245.445-.496.445z"/></svg>