<svg id="light" enable-background="new 0 0 24 24" height="512" viewBox="0 0 24 24" width="512" xmlns="http://www.w3.org/2000/svg"><path d="m21.5 21h-19c-1.379 0-2.5-1.122-2.5-2.5v-13c0-1.378 1.121-2.5 2.5-2.5h5.5c.133 0 .26.053.354.146l1.853 1.854h11.293c1.379 0 2.5 1.122 2.5 2.5v11c0 1.378-1.121 2.5-2.5 2.5zm-19-17c-.827 0-1.5.673-1.5 1.5v13c0 .827.673 1.5 1.5 1.5h19c.827 0 1.5-.673 1.5-1.5v-11c0-.827-.673-1.5-1.5-1.5h-11.5c-.133 0-.26-.053-.354-.146l-1.853-1.854z"/><path d="m16.5 18h-3c-.276 0-.5-.224-.5-.5v-9c0-.276.224-.5.5-.5h3c.276 0 .5.224.5.5v9c0 .276-.224.5-.5.5zm-2.5-1h2v-8h-2z"/><path d="m10.5 18h-3c-.276 0-.5-.224-.5-.5v-5c0-.276.224-.5.5-.5h3c.276 0 .5.224.5.5v5c0 .276-.224.5-.5.5zm-2.5-1h2v-4h-2z"/><path d="m17.5 18h-11c-.276 0-.5-.224-.5-.5s.224-.5.5-.5h11c.276 0 .5.224.5.5s-.224.5-.5.5z"/></svg>