<svg id="light" enable-background="new 0 0 24 24" height="512" viewBox="0 0 24 24" width="512" xmlns="http://www.w3.org/2000/svg"><path d="m10.518 10.982c-.128 0-.256-.049-.354-.146-.195-.195-.195-.512 0-.707l1.482-1.482c.153-.154.384-.19.577-.094l1.678.839 3.245-3.245c.195-.195.512-.195.707 0s.195.512 0 .707l-3.5 3.5c-.153.152-.386.19-.577.094l-1.678-.839-1.227 1.227c-.097.097-.225.146-.353.146z"/><path d="m17.5 10c-.276 0-.5-.224-.5-.5v-2.5h-2.5c-.276 0-.5-.224-.5-.5s.224-.5.5-.5h3c.276 0 .5.224.5.5v3c0 .276-.224.5-.5.5z"/><path d="m6.5 20c-.113 0-.226-.038-.319-.116-.212-.177-.241-.492-.064-.704l1.068-1.282c.743-.891.887-2.137.369-3.174-.096-.192-.059-.425.094-.577l1.823-1.823c.729-.729.729-1.917 0-2.646l-5.631 5.191c-.203.188-.518.175-.707-.029-.187-.203-.174-.52.029-.707l5.631-5.19c.396-.365 1.005-.353 1.385.028 1.12 1.12 1.12 2.941 0 4.061l-1.581 1.581c.512 1.319.275 2.825-.643 3.927l-1.07 1.28c-.099.119-.241.18-.384.18z"/><path d="m9.5 24h-9c-.276 0-.5-.224-.5-.5v-7.596c0-2.333 1.11-4.567 2.969-5.977l2.079-1.576c.22-.167.534-.124.701.096s.124.534-.096.701l-2.079 1.576c-1.612 1.222-2.574 3.158-2.574 5.18v7.096h8v-1.498c0-.276.224-.5.5-.5 1.103 0 2-.897 2-2v-.502c0-.276.224-.5.5-.5s.5.224.5.5v.502c0 1.484-1.083 2.72-2.5 2.958v1.54c0 .276-.224.5-.5.5z"/><path d="m20.5 19h-13c-.276 0-.5-.224-.5-.5s.224-.5.5-.5h13c.276 0 .5-.224.5-.5v-16c0-.276-.224-.5-.5-.5h-14c-.276 0-.5.224-.5.5v11.156c0 .276-.224.5-.5.5s-.5-.223-.5-.5v-11.156c0-.827.673-1.5 1.5-1.5h14c.827 0 1.5.673 1.5 1.5v16c0 .827-.673 1.5-1.5 1.5z"/></svg>