<svg id="light" enable-background="new 0 0 24 24" height="512" viewBox="0 0 24 24" width="512" xmlns="http://www.w3.org/2000/svg"><path d="m13.5 13c-1.252 0-2.438-.459-3.34-1.293-.202-.187-.215-.504-.027-.707.188-.201.503-.215.707-.027.716.662 1.661 1.027 2.66 1.027 2.206 0 4-1.794 4-4s-1.794-4-4-4-4 1.794-4 4c0 .395.054.778.159 1.14.078.264-.074.543-.339.62-.268.078-.543-.075-.62-.339-.133-.453-.2-.931-.2-1.421 0-2.757 2.243-5 5-5s5 2.243 5 5-2.243 5-5 5z"/><path d="m10.52 11.48c-.128 0-.256-.049-.354-.146-.195-.195-.195-.512 0-.707l2.834-2.834v-4.293c0-.276.224-.5.5-.5s.5.224.5.5v4.5c0 .133-.053.26-.146.354l-2.98 2.98c-.099.098-.227.146-.354.146z"/><path d="m6.5 20c-.113 0-.227-.038-.32-.116-.212-.177-.24-.491-.063-.704l1.068-1.282c.742-.891.887-2.137.368-3.174-.097-.192-.059-.425.094-.577l1.823-1.823c.729-.729.729-1.917 0-2.646l-5.631 5.19c-.202.188-.52.176-.706-.028-.188-.203-.175-.52.028-.706l5.631-5.19c.395-.364 1.003-.354 1.385.027 1.119 1.119 1.119 2.941 0 4.061l-1.581 1.581c.512 1.319.274 2.825-.644 3.927l-1.068 1.28c-.099.118-.241.18-.384.18z"/><path d="m9.5 24h-9c-.276 0-.5-.224-.5-.5v-7.596c0-2.333 1.11-4.567 2.97-5.977l2.078-1.576c.218-.166.532-.125.7.097.167.22.124.533-.097.7l-2.078 1.576c-1.611 1.222-2.573 3.158-2.573 5.18v7.096h8v-1.497c0-.276.224-.5.5-.5 1.103 0 2-.897 2-2v-.503c0-.276.224-.5.5-.5s.5.224.5.5v.503c0 1.483-1.083 2.72-2.5 2.958v1.539c0 .276-.224.5-.5.5z"/><path d="m20.5 19h-13c-.276 0-.5-.224-.5-.5s.224-.5.5-.5h13c.275 0 .5-.225.5-.5v-16c0-.275-.225-.5-.5-.5h-14c-.275 0-.5.225-.5.5v11.156c0 .276-.224.5-.5.5s-.5-.223-.5-.5v-11.156c0-.827.673-1.5 1.5-1.5h14c.827 0 1.5.673 1.5 1.5v16c0 .827-.673 1.5-1.5 1.5z"/></svg>