<svg id="light" enable-background="new 0 0 24 24" height="512" viewBox="0 0 24 24" width="512" xmlns="http://www.w3.org/2000/svg"><path d="m23.5 19h-23c-.276 0-.5-.224-.5-.5s.224-.5.5-.5h23c.276 0 .5.224.5.5s-.224.5-.5.5z"/><path d="m21.5 19c-.276 0-.5-.224-.5-.5v-11.5c0-.551-.449-1-1-1h-.5c-.276 0-.5-.224-.5-.5s.224-.5.5-.5h.5c1.103 0 2 .897 2 2v11.5c0 .276-.224.5-.5.5z"/><path d="m2.5 19c-.276 0-.5-.224-.5-.5v-11.5c0-1.103.897-2 2-2h1.5c.276 0 .5.224.5.5s-.224.5-.5.5h-1.5c-.551 0-1 .449-1 1v11.5c0 .276-.224.5-.5.5z"/><path d="m16.5 10h-3c-.276 0-.5-.224-.5-.5v-9c0-.276.224-.5.5-.5h3c.276 0 .5.224.5.5v9c0 .276-.224.5-.5.5zm-2.5-1h2v-8h-2z"/><path d="m10.5 10h-3c-.276 0-.5-.224-.5-.5v-5c0-.276.224-.5.5-.5h3c.276 0 .5.224.5.5v5c0 .276-.224.5-.5.5zm-2.5-1h2v-4h-2z"/><path d="m17.5 10h-11c-.276 0-.5-.224-.5-.5s.224-.5.5-.5h11c.276 0 .5.224.5.5s-.224.5-.5.5z"/></svg>