<svg id="light" enable-background="new 0 0 24 24" height="512" viewBox="0 0 24 24" width="512" xmlns="http://www.w3.org/2000/svg"><path d="m23.5 19h-23c-.276 0-.5-.224-.5-.5s.224-.5.5-.5h23c.276 0 .5.224.5.5s-.224.5-.5.5z"/><path d="m21.5 19c-.276 0-.5-.224-.5-.5v-11.5c0-.551-.448-1-1-1h-16c-.552 0-1 .449-1 1v11.5c0 .276-.224.5-.5.5s-.5-.224-.5-.5v-11.5c0-1.103.897-2 2-2h16c1.103 0 2 .897 2 2v11.5c0 .276-.224.5-.5.5z"/><path d="m7.5 16c-.128 0-.256-.049-.354-.146-.195-.195-.195-.512 0-.707l3.5-3.5c.151-.152.385-.19.577-.094l1.678.839 3.245-3.245c.195-.195.512-.195.707 0s.195.512 0 .707l-3.5 3.5c-.151.153-.385.191-.577.094l-1.678-.839-3.245 3.245c-.097.097-.225.146-.353.146z"/><path d="m16.5 13c-.276 0-.5-.224-.5-.5v-2.5h-2.5c-.276 0-.5-.224-.5-.5s.224-.5.5-.5h3c.276 0 .5.224.5.5v3c0 .276-.224.5-.5.5z"/></svg>