<svg id="light" enable-background="new 0 0 24 24" height="512" viewBox="0 0 24 24" width="512" xmlns="http://www.w3.org/2000/svg"><path d="m20.631 23h-6.783c-1.571 0-2.848-1.301-2.848-2.9 0-1.469 1.078-2.686 2.471-2.875.445-1.865 2.111-3.225 4.029-3.225 1.511 0 2.904.845 3.627 2.175 1.633.241 2.873 1.676 2.873 3.392 0 1.893-1.512 3.433-3.369 3.433zm-3.131-8c-1.559 0-2.897 1.19-3.115 2.769-.034.247-.245.431-.495.431-1.061 0-1.89.852-1.89 1.9s.829 1.9 1.848 1.9h6.783c1.307 0 2.369-1.091 2.369-2.433 0-1.289-.978-2.353-2.226-2.424-.186-.01-.35-.123-.427-.292-.512-1.124-1.63-1.851-2.847-1.851z"/><path d="m8.5 21h-6c-1.379 0-2.5-1.122-2.5-2.5v-16c0-1.378 1.121-2.5 2.5-2.5h11c1.379 0 2.5 1.122 2.5 2.5v9c0 .276-.224.5-.5.5s-.5-.224-.5-.5v-9c0-.827-.673-1.5-1.5-1.5h-11c-.827 0-1.5.673-1.5 1.5v16c0 .827.673 1.5 1.5 1.5h6c.276 0 .5.224.5.5s-.224.5-.5.5z"/><path d="m3.5 13c-.128 0-.256-.049-.354-.146-.195-.195-.195-.512 0-.707l2.5-2.5c.151-.153.385-.19.577-.094l1.678.839 3.245-3.245c.195-.195.512-.195.707 0s.195.512 0 .707l-3.5 3.5c-.151.153-.385.19-.577.094l-1.678-.839-2.245 2.245c-.097.097-.225.146-.353.146z"/><path d="m11.5 11c-.276 0-.5-.224-.5-.5v-2.5h-2.5c-.276 0-.5-.224-.5-.5s.224-.5.5-.5h3c.276 0 .5.224.5.5v3c0 .276-.224.5-.5.5z"/></svg>