<svg id="light" enable-background="new 0 0 24 24" height="512" viewBox="0 0 24 24" width="512" xmlns="http://www.w3.org/2000/svg"><path d="m10.5 21h-8c-1.379 0-2.5-1.122-2.5-2.5v-16c0-1.378 1.121-2.5 2.5-2.5h11c1.379 0 2.5 1.122 2.5 2.5v7c0 .276-.224.5-.5.5s-.5-.224-.5-.5v-7c0-.827-.673-1.5-1.5-1.5h-11c-.827 0-1.5.673-1.5 1.5v16c0 .827.673 1.5 1.5 1.5h8c.276 0 .5.224.5.5s-.224.5-.5.5z"/><path d="m3.5 13c-.128 0-.256-.049-.354-.146-.195-.195-.195-.512 0-.707l2.5-2.5c.151-.153.385-.19.577-.094l1.678.839 3.245-3.245c.195-.195.512-.195.707 0s.195.512 0 .707l-3.5 3.5c-.152.153-.385.19-.577.094l-1.678-.839-2.245 2.245c-.097.097-.225.146-.353.146z"/><path d="m11.5 11c-.276 0-.5-.224-.5-.5v-2.5h-2.5c-.276 0-.5-.224-.5-.5s.224-.5.5-.5h3c.276 0 .5.224.5.5v3c0 .276-.224.5-.5.5z"/><path d="m22.5 20.02h-1c-.827 0-1.5-.673-1.5-1.5v-5c0-.827.673-1.5 1.5-1.5h1c.827 0 1.5.673 1.5 1.5v5c0 .827-.673 1.5-1.5 1.5zm-1-7c-.275 0-.5.224-.5.5v5c0 .276.225.5.5.5h1c.275 0 .5-.224.5-.5v-5c0-.276-.225-.5-.5-.5z"/><path d="m17.86 23.75c-.805 0-1.67-.738-1.67-2.36 0-.553.095-1.017.207-1.37h-1.987c-1.329 0-2.41-1.081-2.41-2.41 0-.032.124-2.541.61-3.563l-.044-.007c.188-1.151 1.234-2.02 2.434-2.02h.76c2.703 0 4.285.674 4.988 1.076.24.137.323.442.187.682-.139.241-.446.321-.683.186-.497-.284-1.929-.944-4.492-.944h-.76c-.703 0-1.339.519-1.447 1.181-.002.015-.005.03-.009.044-.062.3-.53 3.087-.544 3.374 0 .769.633 1.401 1.41 1.401h2.75c.185 0 .354.102.441.265s.077.36-.026.514c-.002.003-.385.605-.385 1.592 0 .998.4 1.36.67 1.36.093-.012.199-.155.199-.9 0-1.551 1.543-2.681 2.206-3.094.233-.145.542-.075.688.16s.075.543-.159.689c-.407.254-1.735 1.166-1.735 2.246.001.615.001 1.898-1.199 1.898z"/></svg>