<svg id="light" enable-background="new 0 0 24 24" height="512" viewBox="0 0 24 24" width="512" xmlns="http://www.w3.org/2000/svg"><path d="m23.5 24c-.169 0-.331-.086-.424-.235-1.473-2.357-4.013-3.765-6.792-3.765h-.284v2.5c0 .202-.122.385-.309.462-.187.079-.401.035-.545-.108l-5-5c-.195-.195-.195-.512 0-.707l5-5c.143-.143.358-.187.545-.108.187.076.309.259.309.461v2.515c4.455.26 8 3.966 8 8.485 0 .223-.148.419-.362.48-.046.014-.092.02-.138.02zm-8-5h.784c2.506 0 4.838 1.017 6.519 2.786-.778-3.312-3.757-5.786-7.303-5.786-.276 0-.5-.224-.5-.5v-1.793l-3.793 3.793 3.793 3.793v-1.793c0-.276.224-.5.5-.5z"/><path d="m9.5 21h-7c-1.378 0-2.5-1.122-2.5-2.5v-16c0-1.378 1.122-2.5 2.5-2.5h11c1.378 0 2.5 1.122 2.5 2.5v7c0 .276-.224.5-.5.5s-.5-.224-.5-.5v-7c0-.827-.673-1.5-1.5-1.5h-11c-.827 0-1.5.673-1.5 1.5v16c0 .827.673 1.5 1.5 1.5h7c.276 0 .5.224.5.5s-.224.5-.5.5z"/><path d="m3.5 13c-.128 0-.256-.049-.354-.146-.195-.195-.195-.512 0-.707l2.5-2.5c.153-.154.384-.192.578-.094l1.678.839 3.245-3.245c.195-.195.512-.195.707 0s.195.512 0 .707l-3.5 3.5c-.154.153-.385.189-.577.094l-1.678-.839-2.245 2.245c-.098.097-.226.146-.354.146z"/><path d="m11.5 11c-.276 0-.5-.224-.5-.5v-2.5h-2.5c-.276 0-.5-.224-.5-.5s.224-.5.5-.5h3c.276 0 .5.224.5.5v3c0 .276-.224.5-.5.5z"/></svg>