<svg id="light" enable-background="new 0 0 24 24" height="512" viewBox="0 0 24 24" width="512" xmlns="http://www.w3.org/2000/svg"><path d="m20.423 24h-1.846c-.537 0-1.115-.404-1.115-1.291v-1.304c0-.531-.272-1.049-.747-1.421-1.117-.876-1.741-2.188-1.714-3.6.046-2.383 2.034-4.35 4.433-4.384 1.211-.043 2.369.442 3.235 1.296.858.847 1.331 1.975 1.331 3.176 0 1.346-.602 2.608-1.651 3.461-.516.419-.811.993-.811 1.574v1.381c0 .613-.5 1.112-1.115 1.112zm-.923-11c-.018 0-.035 0-.053 0-1.833.026-3.412 1.585-3.446 3.404-.021 1.095.464 2.113 1.331 2.793.718.563 1.13 1.367 1.13 2.208v1.304c0 .03.003.291.115.291h1.846c.063 0 .115-.05.115-.111v-1.381c0-.884.43-1.74 1.18-2.35.814-.663 1.282-1.642 1.282-2.686 0-.932-.367-1.806-1.033-2.463-.661-.652-1.535-1.009-2.467-1.009z"/><path d="m21.038 22.167h-3.076c-.276 0-.5-.224-.5-.5s.224-.5.5-.5h3.076c.276 0 .5.224.5.5s-.224.5-.5.5z"/><path d="m12.5 21h-10c-1.379 0-2.5-1.122-2.5-2.5v-16c0-1.378 1.121-2.5 2.5-2.5h11c1.379 0 2.5 1.122 2.5 2.5v8c0 .276-.224.5-.5.5s-.5-.224-.5-.5v-8c0-.827-.673-1.5-1.5-1.5h-11c-.827 0-1.5.673-1.5 1.5v16c0 .827.673 1.5 1.5 1.5h10c.276 0 .5.224.5.5s-.224.5-.5.5z"/><path d="m3.5 13c-.128 0-.256-.049-.354-.146-.195-.195-.195-.512 0-.707l2.5-2.5c.151-.153.385-.19.577-.094l1.678.839 3.245-3.245c.195-.195.512-.195.707 0s.195.512 0 .707l-3.5 3.5c-.151.153-.385.19-.577.094l-1.678-.839-2.245 2.245c-.097.097-.225.146-.353.146z"/><path d="m11.5 11c-.276 0-.5-.224-.5-.5v-2.5h-2.5c-.276 0-.5-.224-.5-.5s.224-.5.5-.5h3c.276 0 .5.224.5.5v3c0 .276-.224.5-.5.5z"/></svg>