<svg id="light" enable-background="new 0 0 24 24" height="512" viewBox="0 0 24 24" width="512" xmlns="http://www.w3.org/2000/svg"><path d="m9.5 21h-7c-1.378 0-2.5-1.122-2.5-2.5v-16c0-1.378 1.122-2.5 2.5-2.5h11c1.378 0 2.5 1.122 2.5 2.5v9c0 .276-.224.5-.5.5s-.5-.224-.5-.5v-9c0-.827-.673-1.5-1.5-1.5h-11c-.827 0-1.5.673-1.5 1.5v16c0 .827.673 1.5 1.5 1.5h7c.276 0 .5.224.5.5s-.224.5-.5.5z"/><path d="m3.5 13c-.128 0-.256-.049-.354-.146-.195-.195-.195-.512 0-.707l2.5-2.5c.153-.153.384-.191.577-.094l1.678.839 3.245-3.245c.195-.195.512-.195.707 0s.195.512 0 .707l-3.5 3.5c-.154.153-.385.189-.577.094l-1.678-.839-2.245 2.245c-.097.097-.225.146-.353.146z"/><path d="m11.5 11c-.276 0-.5-.224-.5-.5v-2.5h-2.5c-.276 0-.5-.224-.5-.5s.224-.5.5-.5h3c.276 0 .5.224.5.5v3c0 .276-.224.5-.5.5z"/><path d="m14.5 24h-1c-.827 0-1.5-.673-1.5-1.5v-5c0-.827.673-1.5 1.5-1.5h1c.827 0 1.5.673 1.5 1.5v5c0 .827-.673 1.5-1.5 1.5zm-1-7c-.276 0-.5.224-.5.5v5c0 .276.224.5.5.5h1c.276 0 .5-.224.5-.5v-5c0-.276-.224-.5-.5-.5z"/><path d="m21 24h-.76c-2.701 0-4.285-.674-4.988-1.076-.24-.137-.323-.442-.186-.682.136-.241.441-.324.682-.186.497.284 1.93.944 4.492.944h.76c.703 0 1.338-.519 1.446-1.181.003-.016.006-.031.01-.046.06-.292.531-3.095.544-3.372 0-.768-.633-1.401-1.41-1.401h-2.75c-.185 0-.354-.102-.441-.265s-.077-.361.026-.514c.001-.003.385-.605.385-1.591 0-.998-.401-1.36-.67-1.36-.094.013-.2.155-.2.9 0 1.549-1.542 2.68-2.205 3.094-.235.147-.543.074-.689-.159-.146-.234-.075-.543.159-.689.407-.254 1.735-1.168 1.735-2.246 0-.617 0-1.9 1.2-1.9.804 0 1.67.738 1.67 2.36 0 .553-.095 1.017-.207 1.37h1.987c1.329 0 2.41 1.081 2.41 2.41 0 .032-.124 2.541-.61 3.563l.044.007c-.188 1.152-1.234 2.02-2.434 2.02z"/></svg>