<svg id="light" enable-background="new 0 0 24 24" height="512" viewBox="0 0 24 24" width="512" xmlns="http://www.w3.org/2000/svg"><path d="m17.5 24c-.105 0-.21-.033-.299-.099-.254-.189-6.201-4.67-6.201-8.271 0-2.002 1.629-3.63 3.631-3.63 1.14 0 2.192.531 2.869 1.404.677-.873 1.729-1.404 2.869-1.404 2.002 0 3.631 1.628 3.631 3.63 0 3.601-5.947 8.082-6.201 8.271-.089.066-.194.099-.299.099zm-2.869-11c-1.45 0-2.631 1.18-2.631 2.63 0 2.43 3.723 5.849 5.5 7.24 1.776-1.392 5.5-4.813 5.5-7.24 0-1.45-1.181-2.63-2.631-2.63-1.048 0-1.994.619-2.41 1.578-.16.365-.758.365-.918 0-.416-.959-1.362-1.578-2.41-1.578z"/><path d="m10.5 21h-8c-1.379 0-2.5-1.122-2.5-2.5v-16c0-1.378 1.121-2.5 2.5-2.5h11c1.379 0 2.5 1.122 2.5 2.5v7c0 .276-.224.5-.5.5s-.5-.224-.5-.5v-7c0-.827-.673-1.5-1.5-1.5h-11c-.827 0-1.5.673-1.5 1.5v16c0 .827.673 1.5 1.5 1.5h8c.276 0 .5.224.5.5s-.224.5-.5.5z"/><path d="m3.5 13c-.128 0-.256-.049-.354-.146-.195-.195-.195-.512 0-.707l2.5-2.5c.152-.153.384-.19.578-.094l1.678.839 3.245-3.245c.195-.195.512-.195.707 0s.195.512 0 .707l-3.5 3.5c-.152.152-.384.19-.577.094l-1.678-.839-2.245 2.245c-.098.097-.226.146-.354.146z"/><path d="m11.5 11c-.276 0-.5-.224-.5-.5v-2.5h-2.5c-.276 0-.5-.224-.5-.5s.224-.5.5-.5h3c.276 0 .5.224.5.5v3c0 .276-.224.5-.5.5z"/></svg>