<svg id="light" enable-background="new 0 0 24 24" height="512" viewBox="0 0 24 24" width="512" xmlns="http://www.w3.org/2000/svg"><path d="m23.5 23h-12c-.276 0-.5-.224-.5-.5v-8c0-.276.224-.5.5-.5h12c.276 0 .5.224.5.5v8c0 .276-.224.5-.5.5zm-11.5-1h11v-7h-11z"/><path d="m17.5 19c-.097 0-.193-.028-.277-.084l-6-4c-.23-.153-.292-.463-.139-.693.152-.23.462-.292.693-.139l5.723 3.815 5.723-3.815c.229-.154.541-.091.693.139.153.23.091.54-.139.693l-6 4c-.084.056-.18.084-.277.084z"/><path d="m8.5 21h-6c-1.378 0-2.5-1.122-2.5-2.5v-16c0-1.378 1.122-2.5 2.5-2.5h11c1.378 0 2.5 1.122 2.5 2.5v9c0 .276-.224.5-.5.5s-.5-.224-.5-.5v-9c0-.827-.673-1.5-1.5-1.5h-11c-.827 0-1.5.673-1.5 1.5v16c0 .827.673 1.5 1.5 1.5h6c.276 0 .5.224.5.5s-.224.5-.5.5z"/><path d="m3.5 13c-.128 0-.256-.049-.354-.146-.195-.195-.195-.512 0-.707l2.5-2.5c.153-.154.384-.192.578-.094l1.678.839 3.245-3.245c.195-.195.512-.195.707 0s.195.512 0 .707l-3.5 3.5c-.153.153-.385.189-.577.094l-1.678-.839-2.245 2.245c-.098.097-.226.146-.354.146z"/><path d="m11.5 11c-.276 0-.5-.224-.5-.5v-2.5h-2.5c-.276 0-.5-.224-.5-.5s.224-.5.5-.5h3c.276 0 .5.224.5.5v3c0 .276-.224.5-.5.5z"/></svg>