<svg id="light" enable-background="new 0 0 24 24" height="512" viewBox="0 0 24 24" width="512" xmlns="http://www.w3.org/2000/svg"><path d="m17.5 24c-3.584 0-6.5-2.916-6.5-6.5s2.916-6.5 6.5-6.5 6.5 2.916 6.5 6.5-2.916 6.5-6.5 6.5zm0-12c-3.033 0-5.5 2.467-5.5 5.5s2.467 5.5 5.5 5.5 5.5-2.467 5.5-5.5-2.467-5.5-5.5-5.5z"/><path d="m17.5 20c-.276 0-.5-.224-.5-.5v-.263c0-.96.505-1.881 1.386-2.526.39-.286.614-.728.614-1.211 0-.827-.673-1.5-1.5-1.5s-1.5.673-1.5 1.5c0 .276-.224.5-.5.5s-.5-.224-.5-.5c0-1.378 1.122-2.5 2.5-2.5s2.5 1.122 2.5 2.5c0 .793-.382 1.547-1.023 2.018-.365.267-.977.845-.977 1.719v.263c0 .276-.224.5-.5.5z"/><path d="m17.5 22c-.13 0-.26-.05-.35-.15-.1-.09-.15-.22-.15-.35s.05-.26.15-.35c.18-.19.51-.19.7 0 .1.09.15.22.15.35s-.05.26-.15.35c-.09.1-.22.15-.35.15z"/><path d="m8.5 21h-6c-1.378 0-2.5-1.122-2.5-2.5v-16c0-1.378 1.122-2.5 2.5-2.5h11c1.378 0 2.5 1.122 2.5 2.5v6c0 .276-.224.5-.5.5s-.5-.224-.5-.5v-6c0-.827-.673-1.5-1.5-1.5h-11c-.827 0-1.5.673-1.5 1.5v16c0 .827.673 1.5 1.5 1.5h6c.276 0 .5.224.5.5s-.224.5-.5.5z"/><path d="m3.5 13c-.128 0-.256-.049-.354-.146-.195-.195-.195-.512 0-.707l2.5-2.5c.153-.154.384-.191.578-.094l1.678.839 3.245-3.245c.195-.195.512-.195.707 0s.195.512 0 .707l-3.5 3.5c-.154.153-.385.189-.577.094l-1.678-.839-2.245 2.245c-.098.097-.226.146-.354.146z"/><path d="m11.5 11c-.276 0-.5-.224-.5-.5v-2.5h-2.5c-.276 0-.5-.224-.5-.5s.224-.5.5-.5h3c.276 0 .5.224.5.5v3c0 .276-.224.5-.5.5z"/></svg>