<svg id="light" enable-background="new 0 0 24 24" height="512" viewBox="0 0 24 24" width="512" xmlns="http://www.w3.org/2000/svg"><path d="m18 24c-.066 0-.132-.013-.194-.04-.238-.099-5.806-2.506-5.806-7.424v-4.179c0-.214.137-.405.34-.474l5.5-1.857c.104-.035.217-.035.32 0l5.5 1.857c.203.068.34.259.34.474v4.179c0 4.918-5.568 7.325-5.806 7.425-.062.026-.128.039-.194.039zm-5-11.284v3.82c0 3.785 4.055 5.958 5 6.414.944-.457 5-2.638 5-6.414v-3.82l-5-1.688z"/><path d="m17.5 19c-.009 0-.019 0-.027-.001-.143-.008-.274-.076-.363-.187l-2-2.5c-.172-.216-.138-.53.078-.703.218-.172.532-.136.703.078l1.65 2.064 3.105-3.105c.195-.195.512-.195.707 0s.195.512 0 .707l-3.5 3.5c-.093.095-.221.147-.353.147z"/><path d="m10.5 21h-8c-1.379 0-2.5-1.122-2.5-2.5v-16c0-1.378 1.121-2.5 2.5-2.5h11c1.379 0 2.5 1.122 2.5 2.5v5c0 .276-.224.5-.5.5s-.5-.224-.5-.5v-5c0-.827-.673-1.5-1.5-1.5h-11c-.827 0-1.5.673-1.5 1.5v16c0 .827.673 1.5 1.5 1.5h8c.276 0 .5.224.5.5s-.224.5-.5.5z"/><path d="m3.5 13c-.128 0-.256-.049-.354-.146-.195-.195-.195-.512 0-.707l2.5-2.5c.151-.153.385-.189.577-.094l1.678.839 3.245-3.245c.195-.195.512-.195.707 0s.195.512 0 .707l-3.5 3.5c-.152.152-.385.19-.577.094l-1.678-.839-2.245 2.245c-.097.097-.225.146-.353.146z"/><path d="m11.5 11c-.276 0-.5-.224-.5-.5v-2.5h-2.5c-.276 0-.5-.224-.5-.5s.224-.5.5-.5h3c.276 0 .5.224.5.5v3c0 .276-.224.5-.5.5z"/></svg>