<svg id="light" enable-background="new 0 0 24 24" height="512" viewBox="0 0 24 24" width="512" xmlns="http://www.w3.org/2000/svg"><path d="m15.5 24c-.276 0-.5-.224-.5-.5v-2c0-3.584 2.916-6.5 6.5-6.5h2c.276 0 .5.224.5.5s-.224.5-.5.5h-2c-3.033 0-5.5 2.467-5.5 5.5v2c0 .276-.224.5-.5.5z"/><path d="m20 19c-.141 0-.281-.059-.379-.175-.18-.209-.156-.525.054-.705l3.057-2.621-3.057-2.621c-.21-.18-.234-.495-.054-.705s.496-.233.705-.054l3.5 3c.11.096.174.235.174.381s-.064.285-.175.379l-3.5 3c-.094.081-.21.121-.325.121z"/><path d="m12.5 21h-10c-1.378 0-2.5-1.122-2.5-2.5v-16c0-1.378 1.122-2.5 2.5-2.5h11c1.378 0 2.5 1.122 2.5 2.5v12c0 .276-.224.5-.5.5s-.5-.224-.5-.5v-12c0-.827-.673-1.5-1.5-1.5h-11c-.827 0-1.5.673-1.5 1.5v16c0 .827.673 1.5 1.5 1.5h10c.276 0 .5.224.5.5s-.224.5-.5.5z"/><path d="m3.5 13c-.128 0-.256-.049-.354-.146-.195-.195-.195-.512 0-.707l2.5-2.5c.153-.154.384-.191.578-.094l1.678.839 3.245-3.245c.195-.195.512-.195.707 0s.195.512 0 .707l-3.5 3.5c-.153.153-.385.189-.577.094l-1.678-.839-2.245 2.245c-.098.097-.226.146-.354.146z"/><path d="m11.5 11c-.276 0-.5-.224-.5-.5v-2.5h-2.5c-.276 0-.5-.224-.5-.5s.224-.5.5-.5h3c.276 0 .5.224.5.5v3c0 .276-.224.5-.5.5z"/></svg>