<svg id="light" enable-background="new 0 0 24 24" height="512" viewBox="0 0 24 24" width="512" xmlns="http://www.w3.org/2000/svg"><path d="m22.5 24h-11c-.827 0-1.5-.673-1.5-1.5 0-.293.081-.569.235-.799l5.488-8.982c.258-.44.75-.719 1.277-.719s1.019.279 1.281.727l5.495 8.992c.143.212.224.488.224.781 0 .827-.673 1.5-1.5 1.5zm-5.5-11c-.174 0-.334.089-.418.233l-5.505 9.008c-.055.082-.077.165-.077.259 0 .276.225.5.5.5h11c.275 0 .5-.224.5-.5 0-.094-.022-.177-.065-.241l-5.512-9.018c-.089-.152-.249-.241-.423-.241z"/><path d="m17 20c-.276 0-.5-.224-.5-.5v-4c0-.276.224-.5.5-.5s.5.224.5.5v4c0 .276-.224.5-.5.5z"/><circle cx="17" cy="21.5" r=".5"/><path d="m8.5 21h-6c-1.379 0-2.5-1.122-2.5-2.5v-16c0-1.378 1.121-2.5 2.5-2.5h11c1.379 0 2.5 1.122 2.5 2.5v7c0 .276-.224.5-.5.5s-.5-.224-.5-.5v-7c0-.827-.673-1.5-1.5-1.5h-11c-.827 0-1.5.673-1.5 1.5v16c0 .827.673 1.5 1.5 1.5h6c.276 0 .5.224.5.5s-.224.5-.5.5z"/><path d="m3.5 13c-.128 0-.256-.049-.354-.146-.195-.195-.195-.512 0-.707l2.5-2.5c.151-.153.385-.189.577-.094l1.678.839 3.245-3.245c.195-.195.512-.195.707 0s.195.512 0 .707l-3.5 3.5c-.151.152-.385.19-.577.094l-1.678-.839-2.245 2.245c-.097.097-.225.146-.353.146z"/><path d="m11.5 11c-.276 0-.5-.224-.5-.5v-2.5h-2.5c-.276 0-.5-.224-.5-.5s.224-.5.5-.5h3c.276 0 .5.224.5.5v3c0 .276-.224.5-.5.5z"/></svg>