<svg id="light" enable-background="new 0 0 24 24" height="512" viewBox="0 0 24 24" width="512" xmlns="http://www.w3.org/2000/svg"><path d="m20.5 11.818c-.276 0-.5-.224-.5-.5v-8.82c0-.827-.673-1.5-1.5-1.5h-13c-.827 0-1.5.673-1.5 1.5v8.82c0 .276-.224.5-.5.5s-.5-.223-.5-.5v-8.82c0-1.378 1.122-2.5 2.5-2.5h13c1.378 0 2.5 1.122 2.5 2.5v8.82c0 .277-.224.5-.5.5z"/><path d="m12 15.992c-.397 0-.794-.094-1.157-.283l-10.574-5.517c-.245-.128-.339-.43-.212-.675.128-.244.428-.339.675-.212l10.575 5.517c.435.227.953.227 1.388 0l10.575-5.517c.246-.127.547-.032.675.212.127.245.033.547-.212.675l-10.575 5.517c-.364.189-.761.283-1.158.283z"/><path d="m22 22.999h-20c-1.103 0-2-.897-2-2v-12.59c0-.748.414-1.428 1.08-1.774l2.189-1.14c.245-.128.547-.032.674.212.127.245.032.547-.212.674l-2.19 1.14c-.334.174-.541.514-.541.888v12.59c0 .551.449 1 1 1h20c.551 0 1-.449 1-1v-12.59c0-.374-.207-.713-.541-.886l-2.19-1.141c-.245-.127-.34-.429-.212-.674.126-.245.428-.341.674-.212l2.19 1.14c.665.345 1.079 1.025 1.079 1.773v12.59c0 1.103-.897 2-2 2z"/><path d="m16.5 12h-3c-.276 0-.5-.224-.5-.5v-9c0-.276.224-.5.5-.5h3c.276 0 .5.224.5.5v9c0 .276-.224.5-.5.5zm-2.5-1h2v-8h-2z"/><path d="m10.5 12h-3c-.276 0-.5-.224-.5-.5v-5c0-.276.224-.5.5-.5h3c.276 0 .5.224.5.5v5c0 .276-.224.5-.5.5zm-2.5-1h2v-4h-2z"/><path d="m17.5 12h-11c-.276 0-.5-.224-.5-.5s.224-.5.5-.5h11c.276 0 .5.224.5.5s-.224.5-.5.5z"/></svg>