<svg id="light" enable-background="new 0 0 24 24" height="512" viewBox="0 0 24 24" width="512" xmlns="http://www.w3.org/2000/svg"><path d="m12 24c-6.617 0-12-5.383-12-12s5.383-12 12-12 12 5.383 12 12-5.383 12-12 12zm0-23c-6.065 0-11 4.935-11 11s4.935 11 11 11 11-4.935 11-11-4.935-11-11-11z"/><path d="m3.868 20.632c-.128 0-.256-.049-.354-.146-.195-.195-.195-.512 0-.707l7.985-7.985v-11.294c.001-.276.225-.5.501-.5s.5.224.5.5v11.5c0 .133-.053.26-.146.354l-8.132 8.132c-.098.097-.226.146-.354.146z"/></svg>