<svg id="light" enable-background="new 0 0 24 24" height="512" viewBox="0 0 24 24" width="512" xmlns="http://www.w3.org/2000/svg"><path d="m22.5 20h-21c-.827 0-1.5-.673-1.5-1.5v-13c0-.827.673-1.5 1.5-1.5h21c.827 0 1.5.673 1.5 1.5v13c0 .827-.673 1.5-1.5 1.5zm-21-15c-.276 0-.5.225-.5.5v13c0 .275.224.5.5.5h21c.276 0 .5-.225.5-.5v-13c0-.275-.224-.5-.5-.5z"/><path d="m16.5 24h-9c-.276 0-.5-.224-.5-.5s.224-.5.5-.5h9c.276 0 .5.224.5.5s-.224.5-.5.5z"/><path d="m10.5 24c-.276 0-.5-.224-.5-.5v-4c0-.276.224-.5.5-.5s.5.224.5.5v4c0 .276-.224.5-.5.5z"/><path d="m13.5 24c-.276 0-.5-.224-.5-.5v-4c0-.276.224-.5.5-.5s.5.224.5.5v4c0 .276-.224.5-.5.5z"/><path d="m12 17c-2.757 0-5-2.243-5-5s2.243-5 5-5 5 2.243 5 5-2.243 5-5 5zm0-9c-2.206 0-4 1.794-4 4s1.794 4 4 4 4-1.794 4-4-1.794-4-4-4z"/><path d="m8.818 15.682c-.128 0-.256-.049-.354-.146-.195-.195-.195-.512 0-.707l3.036-3.035v-4.294c0-.276.224-.5.5-.5s.5.224.5.5v4.5c0 .133-.053.26-.146.354l-3.182 3.182c-.098.097-.226.146-.354.146z"/></svg>