<svg id="light" enable-background="new 0 0 24 24" height="512" viewBox="0 0 24 24" width="512" xmlns="http://www.w3.org/2000/svg"><path d="m22.5 21h-21c-.827 0-1.5-.673-1.5-1.5v-14c0-.827.673-1.5 1.5-1.5h21c.827 0 1.5.673 1.5 1.5v14c0 .827-.673 1.5-1.5 1.5zm-21-16c-.276 0-.5.225-.5.5v14c0 .275.224.5.5.5h21c.276 0 .5-.225.5-.5v-14c0-.275-.224-.5-.5-.5z"/><path d="m15.5 24h-7c-.202 0-.385-.122-.462-.309-.078-.187-.035-.402.108-.545 1.316-1.316 1.333-2.59 1.333-2.644.001-.274.225-.502.501-.502h4.02c.275 0 .499.223.5.497.001.063.04 1.336 1.354 2.649.143.143.186.358.108.545-.077.187-.26.309-.462.309zm-5.929-1h4.857c-.56-.801-.782-1.537-.87-2h-3.13c-.085.465-.301 1.2-.857 2zm4.929-2.5h.01z"/><path d="m23.5 18h-23c-.276 0-.5-.224-.5-.5s.224-.5.5-.5h23c.276 0 .5.224.5.5s-.224.5-.5.5z"/><path d="m12 16c-2.757 0-5-2.243-5-5s2.243-5 5-5 5 2.243 5 5-2.243 5-5 5zm0-9c-2.206 0-4 1.794-4 4s1.794 4 4 4 4-1.794 4-4-1.794-4-4-4z"/><path d="m8.818 14.682c-.128 0-.256-.049-.354-.146-.195-.195-.195-.512 0-.707l3.036-3.035v-4.294c0-.276.224-.5.5-.5s.5.224.5.5v4.5c0 .133-.053.26-.146.354l-3.182 3.182c-.098.097-.226.146-.354.146z"/></svg>