<svg id="light" enable-background="new 0 0 24 24" height="512" viewBox="0 0 24 24" width="512" xmlns="http://www.w3.org/2000/svg"><path d="m21.5 21h-19c-1.379 0-2.5-1.121-2.5-2.5v-13c0-1.379 1.121-2.5 2.5-2.5h5.5c.133 0 .26.053.354.146l1.853 1.854h11.293c1.379 0 2.5 1.121 2.5 2.5v11c0 1.379-1.121 2.5-2.5 2.5zm-19-17c-.827 0-1.5.673-1.5 1.5v13c0 .827.673 1.5 1.5 1.5h19c.827 0 1.5-.673 1.5-1.5v-11c0-.827-.673-1.5-1.5-1.5h-11.5c-.133 0-.26-.053-.354-.146l-1.853-1.854z"/><path d="m12 18c-2.757 0-5-2.243-5-5s2.243-5 5-5 5 2.243 5 5-2.243 5-5 5zm0-9c-2.206 0-4 1.794-4 4s1.794 4 4 4 4-1.794 4-4-1.794-4-4-4z"/><path d="m8.818 16.682c-.128 0-.256-.049-.354-.146-.195-.195-.195-.512 0-.707l3.035-3.035v-4.294c.001-.276.225-.5.501-.5s.5.224.5.5v4.5c0 .133-.053.26-.146.354l-3.182 3.182c-.098.097-.226.146-.354.146z"/></svg>