<svg id="light" enable-background="new 0 0 24 24" height="512" viewBox="0 0 24 24" width="512" xmlns="http://www.w3.org/2000/svg"><path d="m23.5 19h-23c-.276 0-.5-.224-.5-.5s.224-.5.5-.5h23c.276 0 .5.224.5.5s-.224.5-.5.5z"/><path d="m21.5 19c-.276 0-.5-.224-.5-.5v-11.5c0-.552-.449-1-1-1h-16c-.551 0-1 .448-1 1v11.5c0 .276-.224.5-.5.5s-.5-.224-.5-.5v-11.5c0-1.103.897-2 2-2h16c1.103 0 2 .897 2 2v11.5c0 .276-.224.5-.5.5z"/><path d="m12 17c-2.757 0-5-2.243-5-5s2.243-5 5-5 5 2.243 5 5-2.243 5-5 5zm0-9c-2.206 0-4 1.794-4 4s1.794 4 4 4 4-1.794 4-4-1.794-4-4-4z"/><path d="m8.818 15.682c-.128 0-.256-.049-.354-.146-.195-.195-.195-.512 0-.707l3.036-3.035v-4.294c0-.276.224-.5.5-.5s.5.224.5.5v4.5c0 .133-.053.26-.146.354l-3.182 3.182c-.098.097-.226.146-.354.146z"/></svg>