<svg id="light" enable-background="new 0 0 24 24" height="512" viewBox="0 0 24 24" width="512" xmlns="http://www.w3.org/2000/svg"><path d="m20.5 11.818c-.276 0-.5-.224-.5-.5v-8.82c0-.827-.673-1.5-1.5-1.5h-13c-.827 0-1.5.673-1.5 1.5v8.82c0 .276-.224.5-.5.5s-.5-.223-.5-.5v-8.82c0-1.379 1.121-2.5 2.5-2.5h13c1.379 0 2.5 1.121 2.5 2.5v8.82c0 .277-.224.5-.5.5z"/><path d="m12 15.992c-.397 0-.794-.094-1.156-.283l-10.575-5.518c-.245-.128-.34-.43-.212-.675s.431-.336.674-.211l10.575 5.518c.434.227.953.227 1.387 0l10.575-5.518c.244-.125.547-.033.675.212s.033.547-.212.675l-10.575 5.518c-.362.188-.759.282-1.156.282z"/><path d="m22 22.998h-20c-1.103 0-2-.897-2-2v-12.59c0-.747.413-1.427 1.078-1.773l2.191-1.14c.243-.125.546-.033.674.213.128.245.033.547-.213.674l-2.19 1.14c-.333.173-.54.513-.54.886v12.59c0 .552.448 1 1 1h20c.552 0 1-.448 1-1v-12.59c0-.373-.207-.713-.541-.887l-2.189-1.14c-.245-.127-.341-.429-.213-.674.128-.246.433-.337.674-.213l2.19 1.14c.666.347 1.079 1.027 1.079 1.774v12.59c0 1.103-.897 2-2 2z"/><path d="m12 13c-2.757 0-5-2.243-5-5s2.243-5 5-5 5 2.243 5 5-2.243 5-5 5zm0-9c-2.206 0-4 1.794-4 4s1.794 4 4 4 4-1.794 4-4-1.794-4-4-4z"/><path d="m8.818 11.682c-.128 0-.256-.049-.354-.146-.195-.195-.195-.512 0-.707l3.036-3.036v-4.293c0-.276.224-.5.5-.5s.5.224.5.5v4.5c0 .133-.053.26-.146.354l-3.182 3.182c-.098.097-.226.146-.354.146z"/></svg>