<svg id="light" enable-background="new 0 0 24 24" height="512" viewBox="0 0 24 24" width="512" xmlns="http://www.w3.org/2000/svg"><path d="m12 18c-3.309 0-6-2.691-6-6s2.691-6 6-6 6 2.691 6 6-2.691 6-6 6zm0-11c-2.757 0-5 2.243-5 5s2.243 5 5 5 5-2.243 5-5-2.243-5-5-5z"/><path d="m8.111 16.389c-.128 0-.256-.049-.354-.146-.195-.195-.195-.512 0-.707l3.742-3.742v-5.294c.001-.276.225-.5.501-.5s.5.224.5.5v5.5c0 .133-.053.26-.146.354l-3.889 3.889c-.098.097-.226.146-.354.146z"/><path d="m18.5 24h-13c-1.379 0-2.5-1.121-2.5-2.5v-19c0-1.379 1.121-2.5 2.5-2.5h13c1.379 0 2.5 1.121 2.5 2.5v19c0 1.379-1.121 2.5-2.5 2.5zm-13-23c-.827 0-1.5.673-1.5 1.5v19c0 .827.673 1.5 1.5 1.5h13c.827 0 1.5-.673 1.5-1.5v-19c0-.827-.673-1.5-1.5-1.5z"/></svg>