<svg id="light" enable-background="new 0 0 24 24" height="512" viewBox="0 0 24 24" width="512" xmlns="http://www.w3.org/2000/svg"><path d="m20.631 23h-6.783c-1.571 0-2.848-1.301-2.848-2.9 0-1.469 1.078-2.686 2.471-2.874.445-1.866 2.111-3.226 4.029-3.226 1.511 0 2.904.845 3.627 2.175 1.633.241 2.873 1.676 2.873 3.391 0 1.894-1.512 3.434-3.369 3.434zm-3.131-8c-1.559 0-2.897 1.19-3.115 2.769-.034.247-.245.431-.495.431-1.061 0-1.89.853-1.89 1.9 0 1.048.829 1.9 1.848 1.9h6.783c1.307 0 2.369-1.092 2.369-2.434 0-1.288-.978-2.353-2.226-2.424-.186-.011-.35-.123-.427-.291-.512-1.124-1.63-1.851-2.847-1.851z"/><path d="m8.5 21h-6c-1.379 0-2.5-1.121-2.5-2.5v-16c0-1.379 1.121-2.5 2.5-2.5h11c1.379 0 2.5 1.121 2.5 2.5v9c0 .276-.224.5-.5.5s-.5-.224-.5-.5v-9c0-.827-.673-1.5-1.5-1.5h-11c-.827 0-1.5.673-1.5 1.5v16c0 .827.673 1.5 1.5 1.5h6c.276 0 .5.224.5.5s-.224.5-.5.5z"/><path d="m8 15c-2.757 0-5-2.243-5-5s2.243-5 5-5 5 2.243 5 5-2.243 5-5 5zm0-9c-2.206 0-4 1.794-4 4s1.794 4 4 4 4-1.794 4-4-1.794-4-4-4z"/><path d="m4.818 13.682c-.128 0-.256-.049-.354-.146-.195-.195-.195-.512 0-.707l3.036-3.036v-4.293c0-.276.224-.5.5-.5s.5.224.5.5v4.5c0 .133-.053.26-.146.354l-3.182 3.182c-.098.097-.226.146-.354.146z"/></svg>