<svg id="light" enable-background="new 0 0 24 24" height="512" viewBox="0 0 24 24" width="512" xmlns="http://www.w3.org/2000/svg"><path d="m23.5 24c-.169 0-.331-.086-.424-.235-1.473-2.358-4.013-3.765-6.792-3.765h-.284v2.5c0 .202-.122.385-.309.462s-.401.035-.545-.108l-5-5c-.195-.195-.195-.512 0-.707l5-5c.143-.144.358-.186.545-.108s.309.259.309.461v2.515c4.455.26 8 3.967 8 8.485 0 .223-.148.419-.362.48-.046.014-.092.02-.138.02zm-8-5h.784c2.506 0 4.838 1.017 6.519 2.786-.778-3.312-3.757-5.786-7.303-5.786-.276 0-.5-.224-.5-.5v-1.793l-3.793 3.793 3.793 3.793v-1.793c0-.276.224-.5.5-.5z"/><path d="m9.5 21h-7c-1.378 0-2.5-1.121-2.5-2.5v-16c0-1.379 1.122-2.5 2.5-2.5h11c1.378 0 2.5 1.121 2.5 2.5v7c0 .276-.224.5-.5.5s-.5-.224-.5-.5v-7c0-.827-.673-1.5-1.5-1.5h-11c-.827 0-1.5.673-1.5 1.5v16c0 .827.673 1.5 1.5 1.5h7c.276 0 .5.224.5.5s-.224.5-.5.5z"/><path d="m8 15c-2.757 0-5-2.243-5-5s2.243-5 5-5 5 2.243 5 5-2.243 5-5 5zm0-9c-2.206 0-4 1.794-4 4s1.794 4 4 4 4-1.794 4-4-1.794-4-4-4z"/><path d="m4.818 13.682c-.128 0-.256-.049-.354-.146-.195-.195-.195-.512 0-.707l3.036-3.036v-4.293c0-.276.224-.5.5-.5s.5.224.5.5v4.5c0 .133-.053.26-.146.354l-3.182 3.182c-.098.097-.226.146-.354.146z"/></svg>