<svg id="light" enable-background="new 0 0 24 24" height="512" viewBox="0 0 24 24" width="512" xmlns="http://www.w3.org/2000/svg"><path d="m14.039 24h-.539c-.827 0-1.5-.673-1.5-1.5v-5.652c0-.827.673-1.5 1.5-1.5h.539c.827 0 1.5.673 1.5 1.5v5.652c0 .827-.673 1.5-1.5 1.5zm-.539-7.652c-.276 0-.5.225-.5.5v5.652c0 .275.224.5.5.5h.539c.276 0 .5-.225.5-.5v-5.652c0-.275-.224-.5-.5-.5z"/><path d="m21.028 24h-.876c-3.717 0-5.354-1.248-5.422-1.302-.218-.17-.256-.484-.085-.702.17-.218.484-.254.702-.085.011.009 1.471 1.089 4.805 1.089h.876c.694 0 1.28-.497 1.394-1.181l.558-3.348c.068-.41-.047-.828-.316-1.146s-.662-.5-1.078-.5h-2.869c-.185 0-.354-.102-.441-.264-.087-.163-.077-.36.025-.514.002-.003.395-.624.395-1.636 0-1.027-.427-1.411-.696-1.411-.08 0-.104.01-.105.011-.001.006-.112.148-.112.924 0 1.951-2.406 3.257-2.509 3.312-.244.13-.546.038-.676-.206-.13-.243-.039-.546.205-.676.551-.296 1.98-1.309 1.98-2.43 0-.676 0-1.935 1.217-1.935.817 0 1.696.755 1.696 2.413 0 .572-.1 1.051-.215 1.413h2.105c.711 0 1.382.312 1.841.854s.656 1.255.539 1.956l-.558 3.348c-.194 1.168-1.195 2.016-2.38 2.016z"/><path d="m8.5 21h-6c-1.378 0-2.5-1.121-2.5-2.5v-16c0-1.379 1.122-2.5 2.5-2.5h11c1.378 0 2.5 1.121 2.5 2.5v6c0 .276-.224.5-.5.5s-.5-.224-.5-.5v-6c0-.827-.673-1.5-1.5-1.5h-11c-.827 0-1.5.673-1.5 1.5v16c0 .827.673 1.5 1.5 1.5h6c.276 0 .5.224.5.5s-.224.5-.5.5z"/><path d="m8 15c-2.757 0-5-2.243-5-5s2.243-5 5-5 5 2.243 5 5-2.243 5-5 5zm0-9c-2.206 0-4 1.794-4 4s1.794 4 4 4 4-1.794 4-4-1.794-4-4-4z"/><path d="m4.818 13.682c-.128 0-.256-.049-.354-.146-.195-.195-.195-.512 0-.707l3.036-3.036v-4.293c0-.276.224-.5.5-.5s.5.224.5.5v4.5c0 .133-.053.26-.146.354l-3.182 3.182c-.098.097-.226.146-.354.146z"/></svg>