<svg id="light" enable-background="new 0 0 24 24" height="512" viewBox="0 0 24 24" width="512" xmlns="http://www.w3.org/2000/svg"><path d="m22.5 23h-10c-.827 0-1.5-.673-1.5-1.5v-6c0-.827.673-1.5 1.5-1.5h10c.827 0 1.5.673 1.5 1.5v6c0 .827-.673 1.5-1.5 1.5zm-10-8c-.276 0-.5.225-.5.5v6c0 .275.224.5.5.5h10c.276 0 .5-.225.5-.5v-6c0-.275-.224-.5-.5-.5z"/><path d="m17.5 19c-.1 0-.199-.029-.285-.089l-5.54-3.84c-.227-.157-.284-.469-.126-.696.157-.226.467-.282.696-.126l5.255 3.643 5.255-3.643c.227-.156.538-.1.696.126.157.228.101.539-.126.696l-5.54 3.84c-.086.06-.185.089-.285.089z"/><path d="m8.5 21h-6c-1.378 0-2.5-1.121-2.5-2.5v-16c0-1.379 1.122-2.5 2.5-2.5h11c1.378 0 2.5 1.121 2.5 2.5v9c0 .276-.224.5-.5.5s-.5-.224-.5-.5v-9c0-.827-.673-1.5-1.5-1.5h-11c-.827 0-1.5.673-1.5 1.5v16c0 .827.673 1.5 1.5 1.5h6c.276 0 .5.224.5.5s-.224.5-.5.5z"/><path d="m8 15c-2.757 0-5-2.243-5-5s2.243-5 5-5 5 2.243 5 5c0 .807-.187 1.577-.555 2.291-.126.245-.427.343-.673.215-.246-.127-.342-.428-.215-.674.294-.57.443-1.186.443-1.832 0-2.206-1.794-4-4-4s-4 1.794-4 4 1.794 4 4 4c.302 0 .602-.033.89-.099.266-.066.537.106.598.376s-.107.537-.376.599c-.362.082-.736.124-1.112.124z"/><path d="m4.818 13.682c-.128 0-.256-.049-.354-.146-.195-.195-.195-.512 0-.707l3.036-3.036v-4.293c0-.276.224-.5.5-.5s.5.224.5.5v4.5c0 .133-.053.26-.146.354l-3.182 3.182c-.098.097-.226.146-.354.146z"/></svg>