<svg id="light" enable-background="new 0 0 24 24" height="512" viewBox="0 0 24 24" width="512" xmlns="http://www.w3.org/2000/svg"><path d="m8.5 21h-6c-1.378 0-2.5-1.121-2.5-2.5v-16c0-1.379 1.122-2.5 2.5-2.5h11c1.378 0 2.5 1.121 2.5 2.5v6c0 .276-.224.5-.5.5s-.5-.224-.5-.5v-6c0-.827-.673-1.5-1.5-1.5h-11c-.827 0-1.5.673-1.5 1.5v16c0 .827.673 1.5 1.5 1.5h6c.276 0 .5.224.5.5s-.224.5-.5.5z"/><path d="m17.5 24c-3.584 0-6.5-2.916-6.5-6.5s2.916-6.5 6.5-6.5 6.5 2.916 6.5 6.5-2.916 6.5-6.5 6.5zm0-12c-3.033 0-5.5 2.468-5.5 5.5s2.467 5.5 5.5 5.5 5.5-2.468 5.5-5.5-2.467-5.5-5.5-5.5z"/><path d="m17.5 21c-.276 0-.5-.224-.5-.5v-6c0-.276.224-.5.5-.5s.5.224.5.5v6c0 .276-.224.5-.5.5z"/><path d="m20.5 18h-6c-.276 0-.5-.224-.5-.5s.224-.5.5-.5h6c.276 0 .5.224.5.5s-.224.5-.5.5z"/><path d="m7.53 14.98c-.018 0-.035-.001-.053-.003-2.552-.269-4.477-2.41-4.477-4.977 0-2.757 2.243-5 5-5s5 2.243 5 5c0 .276-.224.529-.5.529s-.5-.193-.5-.469v-.06c0-2.206-1.794-4-4-4s-4 1.794-4 4c0 2.055 1.54 3.768 3.583 3.983.274.029.474.275.444.55-.027.257-.244.447-.497.447z"/><path d="m4.818 13.682c-.128 0-.256-.049-.354-.146-.195-.195-.195-.512 0-.707l3.036-3.036v-4.293c0-.276.224-.5.5-.5s.5.224.5.5v4.5c0 .133-.053.26-.146.354l-3.182 3.182c-.098.097-.226.146-.354.146z"/></svg>