<svg id="light" enable-background="new 0 0 24 24" height="512" viewBox="0 0 24 24" width="512" xmlns="http://www.w3.org/2000/svg"><path d="m21.208 24c-.098 0-.196-.029-.281-.087l-3.427-2.332-3.427 2.332c-.171.117-.397.116-.568-.004-.17-.118-.249-.331-.198-.532l1.061-4.187-3.192-2.727c-.155-.132-.214-.346-.149-.539.065-.194.241-.328.445-.34l4.083-.232 1.477-4.024c.145-.395.794-.395.938 0l1.477 4.024 4.083.232c.204.012.38.146.445.34.065.193.006.407-.149.539l-3.192 2.727 1.061 4.187c.051.201-.028.414-.198.532-.088.061-.188.091-.289.091zm-3.708-3.523c.098 0 .196.029.281.087l2.619 1.781-.813-3.21c-.046-.185.016-.38.16-.503l2.481-2.119-3.167-.181c-.199-.011-.373-.14-.441-.327l-1.12-3.053-1.12 3.053c-.068.188-.242.316-.441.327l-3.167.181 2.481 2.119c.145.123.207.318.16.503l-.813 3.21 2.619-1.781c.085-.058.183-.087.281-.087z"/><path d="m11.5 21h-9c-1.378 0-2.5-1.121-2.5-2.5v-16c0-1.379 1.122-2.5 2.5-2.5h11c1.378 0 2.5 1.121 2.5 2.5v6c0 .276-.224.5-.5.5s-.5-.224-.5-.5v-6c0-.827-.673-1.5-1.5-1.5h-11c-.827 0-1.5.673-1.5 1.5v16c0 .827.673 1.5 1.5 1.5h9c.276 0 .5.224.5.5s-.224.5-.5.5z"/><path d="m8 15c-2.757 0-5-2.243-5-5s2.243-5 5-5 5 2.243 5 5-2.243 5-5 5zm0-9c-2.206 0-4 1.794-4 4s1.794 4 4 4 4-1.794 4-4-1.794-4-4-4z"/><path d="m4.818 13.682c-.128 0-.256-.049-.354-.146-.195-.195-.195-.512 0-.707l3.036-3.036v-4.293c0-.276.224-.5.5-.5s.5.224.5.5v4.5c0 .133-.053.26-.146.354l-3.182 3.182c-.098.097-.226.146-.354.146z"/></svg>