<svg id="light" enable-background="new 0 0 24 24" height="512" viewBox="0 0 24 24" width="512" xmlns="http://www.w3.org/2000/svg"><path d="m15.5 24c-.276 0-.5-.224-.5-.5v-2c0-3.584 2.916-6.5 6.5-6.5h2c.276 0 .5.224.5.5s-.224.5-.5.5h-2c-3.033 0-5.5 2.468-5.5 5.5v2c0 .276-.224.5-.5.5z"/><path d="m20 19c-.141 0-.281-.06-.379-.175-.18-.209-.156-.525.054-.705l3.057-2.62-3.057-2.62c-.21-.18-.234-.496-.054-.705s.496-.234.705-.055l3.5 3c.11.096.174.234.174.38s-.064.284-.175.38l-3.5 3c-.094.08-.21.12-.325.12z"/><path d="m12.5 21h-10c-1.378 0-2.5-1.121-2.5-2.5v-16c0-1.379 1.122-2.5 2.5-2.5h11c1.378 0 2.5 1.121 2.5 2.5v12c0 .276-.224.5-.5.5s-.5-.224-.5-.5v-12c0-.827-.673-1.5-1.5-1.5h-11c-.827 0-1.5.673-1.5 1.5v16c0 .827.673 1.5 1.5 1.5h10c.276 0 .5.224.5.5s-.224.5-.5.5z"/><path d="m8 15c-2.757 0-5-2.243-5-5s2.243-5 5-5 5 2.243 5 5-2.243 5-5 5zm0-9c-2.206 0-4 1.794-4 4s1.794 4 4 4 4-1.794 4-4-1.794-4-4-4z"/><path d="m4.818 13.682c-.128 0-.256-.049-.354-.146-.195-.195-.195-.512 0-.707l3.036-3.036v-4.293c0-.276.224-.5.5-.5s.5.224.5.5v4.5c0 .133-.053.26-.146.354l-3.182 3.182c-.098.097-.226.146-.354.146z"/></svg>