<svg id="light" enable-background="new 0 0 24 24" height="512" viewBox="0 0 24 24" width="512" xmlns="http://www.w3.org/2000/svg"><path d="m22.5 24h-11c-.827 0-1.5-.673-1.5-1.5 0-.294.081-.569.235-.799l5.488-8.981c.259-.441.75-.72 1.277-.72s1.018.279 1.281.728l5.495 8.992c.143.211.224.486.224.78 0 .827-.673 1.5-1.5 1.5zm-5.5-11c-.174 0-.334.09-.418.233l-5.505 9.008c-.055.082-.077.165-.077.259 0 .275.225.5.5.5h11c.275 0 .5-.225.5-.5 0-.094-.022-.177-.065-.24l-5.512-9.019c-.089-.151-.249-.241-.423-.241z"/><path d="m17 20c-.276 0-.5-.224-.5-.5v-4c0-.276.224-.5.5-.5s.5.224.5.5v4c0 .276-.224.5-.5.5z"/><circle cx="17" cy="21.5" r=".5"/><path d="m8.5 21h-6c-1.379 0-2.5-1.121-2.5-2.5v-16c0-1.379 1.121-2.5 2.5-2.5h11c1.379 0 2.5 1.121 2.5 2.5v7c0 .276-.224.5-.5.5s-.5-.224-.5-.5v-7c0-.827-.673-1.5-1.5-1.5h-11c-.827 0-1.5.673-1.5 1.5v16c0 .827.673 1.5 1.5 1.5h6c.276 0 .5.224.5.5s-.224.5-.5.5z"/><path d="m8 15c-2.757 0-5-2.243-5-5s2.243-5 5-5 5 2.243 5 5-2.243 5-5 5zm0-9c-2.206 0-4 1.794-4 4s1.794 4 4 4 4-1.794 4-4-1.794-4-4-4z"/><path d="m4.818 13.682c-.128 0-.256-.049-.354-.146-.195-.195-.195-.512 0-.707l3.036-3.036v-4.293c0-.276.224-.5.5-.5s.5.224.5.5v4.5c0 .133-.053.26-.146.354l-3.182 3.182c-.098.097-.226.146-.354.146z"/></svg>