<svg id="light" enable-background="new 0 0 24 24" height="512" viewBox="0 0 24 24" width="512" xmlns="http://www.w3.org/2000/svg"><path d="m3.5 22h-3c-.276 0-.5-.224-.5-.5v-9c0-.276.224-.5.5-.5 3.401 0 5.198 1.146 5.273 1.195.179.117.264.335.211.542l-2 7.886c-.055.222-.255.377-.484.377zm-2.5-1h2.111l1.808-7.13c-.562-.27-1.888-.786-3.919-.861z"/><path d="m13 24c-2.36 0-6.923-1.984-9.433-3.168-.25-.117-.357-.416-.239-.665.117-.251.417-.356.665-.239 1.96.924 6.761 3.072 9.007 3.072 2.433 0 8.165-2.857 9.814-3.706-.26-.34-.797-.794-1.814-.794-.923 0-2.093.369-3.225.727-1.203.379-2.448.773-3.525.773-2.064 0-4.806-.988-4.921-1.03-.26-.094-.394-.381-.299-.641.094-.26.38-.393.641-.299.026.01 2.692.97 4.579.97.923 0 2.093-.369 3.225-.727 1.203-.379 2.448-.773 3.525-.773 2.334 0 2.949 1.767 2.975 1.842.077.231-.024.484-.239.6-.311.164-7.646 4.058-10.736 4.058z"/><path d="m16.5 19.59c-.276 0-.5-.224-.5-.5v-.5c0-.698-.471-1.296-1.144-1.452l-9.653-2.331c-.269-.065-.434-.335-.369-.604.065-.268.333-.429.604-.369l9.649 2.33c1.125.263 1.913 1.261 1.913 2.426v.5c0 .276-.224.5-.5.5z"/><path d="m18 12c-3.309 0-6-2.691-6-6s2.691-6 6-6 6 2.691 6 6-2.691 6-6 6zm0-11c-2.757 0-5 2.243-5 5s2.243 5 5 5 5-2.243 5-5-2.243-5-5-5z"/><path d="m14.111 10.389c-.128 0-.256-.049-.354-.146-.195-.195-.195-.512 0-.707l3.743-3.743v-5.293c0-.276.224-.5.5-.5s.5.224.5.5v5.5c0 .133-.053.26-.146.354l-3.889 3.889c-.098.097-.226.146-.354.146z"/></svg>