<svg id="light" enable-background="new 0 0 24 24" height="512" viewBox="0 0 24 24" width="512" xmlns="http://www.w3.org/2000/svg"><path d="m12 24c-6.617 0-12-5.383-12-12s5.383-12 12-12 12 5.383 12 12-5.383 12-12 12zm0-23c-6.065 0-11 4.935-11 11s4.935 11 11 11 11-4.935 11-11-4.935-11-11-11z"/><path d="m12 12.5h-11.5c-.276 0-.5-.224-.5-.5s.224-.5.5-.5h11v-11c0-.276.224-.5.5-.5s.5.224.5.5v11.5c0 .276-.224.5-.5.5z"/><path d="m17 22.858c-.186 0-.365-.104-.451-.282l-5-10.358c-.12-.249-.016-.548.233-.668s.548-.015.667.232l5 10.358c.12.249.016.548-.233.668-.069.035-.143.05-.216.05z"/></svg>