<svg id="light" enable-background="new 0 0 24 24" height="512" viewBox="0 0 24 24" width="512" xmlns="http://www.w3.org/2000/svg"><path d="m22 10.5h-4c-.276 0-.5-.224-.5-.5 0-2.757-2.243-5-5-5-.276 0-.5-.224-.5-.5v-4c0-.276.224-.5.5-.5 5.514 0 10 4.486 10 10 0 .276-.224.5-.5.5zm-3.521-1h3.007c-.251-4.565-3.921-8.235-8.486-8.486v3.007c2.91.241 5.238 2.569 5.479 5.479z"/><path d="m10 23c-5.514 0-10-4.486-10-10s4.486-10 10-10c.276 0 .5.224.5.5v4c0 .276-.224.5-.5.5-2.757 0-5 2.243-5 5s2.243 5 5 5c1.336 0 2.593-.52 3.537-1.464.094-.094.221-.146.354-.146.133 0 .26.053.354.146l2.83 2.83c.195.195.195.512 0 .707-1.888 1.888-4.4 2.927-7.075 2.927zm-.5-18.986c-4.731.26-8.5 4.191-8.5 8.986 0 4.963 4.038 9 9 9 2.24 0 4.353-.81 6.003-2.29l-2.127-2.128c-1.082.918-2.44 1.418-3.876 1.418-3.309 0-6-2.691-6-6 0-3.14 2.425-5.725 5.5-5.979z"/><path d="m20.72 19.72c-.128 0-.256-.049-.354-.146l-2.83-2.83c-.094-.094-.146-.221-.146-.354s.053-.26.146-.354c.944-.943 1.464-2.199 1.464-3.536 0-.276.224-.5.5-.5h4c.276 0 .5.224.5.5 0 2.675-1.04 5.187-2.927 7.073-.097.098-.225.147-.353.147zm-2.137-3.345 2.127 2.128c1.37-1.527 2.166-3.45 2.276-5.503h-3.007c-.102 1.25-.586 2.421-1.396 3.375z"/></svg>