<svg id="light" enable-background="new 0 0 24 24" height="512" viewBox="0 0 24 24" width="512" xmlns="http://www.w3.org/2000/svg"><path d="m11 24c-5.514 0-10-4.486-10-10 0-.276.224-.5.5-.5h9.5c.192 0 .367.109.45.283l4.13 8.56c.058.119.065.257.022.382-.044.125-.136.229-.256.285-1.367.657-2.829.99-4.346.99zm-8.986-9.5c.26 4.73 4.191 8.5 8.986 8.5 1.198 0 2.358-.23 3.456-.687l-3.77-7.813z"/><path d="m18.13 20.56c-.056 0-.111-.009-.165-.027-.125-.044-.228-.136-.286-.256l-4.13-8.56c-.033-.067-.05-.142-.05-.217v-9.5c0-.276.224-.5.5-.5 5.514 0 10 4.486 10 10 0 3.869-2.166 7.321-5.652 9.01-.068.033-.142.05-.217.05zm-3.63-9.174 3.857 7.993c2.876-1.589 4.643-4.565 4.643-7.879 0-4.795-3.769-8.726-8.5-8.986z"/><path d="m10 10.5h-9.5c-.276 0-.5-.224-.5-.5 0-5.514 4.486-10 10-10 .276 0 .5.224.5.5v9.5c0 .276-.224.5-.5.5zm-8.986-1h8.486v-8.486c-4.565.251-8.235 3.921-8.486 8.486z"/></svg>