<svg id="light" enable-background="new 0 0 24 24" height="512" viewBox="0 0 24 24" width="512" xmlns="http://www.w3.org/2000/svg"><path d="m19.5 11h-3c-.276 0-.5-.224-.5-.5v-7c0-.276.224-.5.5-.5h3c.276 0 .5.224.5.5v7c0 .276-.224.5-.5.5zm-2.5-1h2v-6h-2z"/><path d="m13.5 11h-3c-.276 0-.5-.224-.5-.5v-3c0-.276.224-.5.5-.5h3c.276 0 .5.224.5.5v3c0 .276-.224.5-.5.5zm-2.5-1h2v-2h-2z"/><path d="m20.5 11h-11c-.276 0-.5-.224-.5-.5s.224-.5.5-.5h11c.276 0 .5.224.5.5s-.224.5-.5.5z"/><path d="m12.5 18c-.053 0-.106-.008-.158-.026-.204-.068-.342-.259-.342-.474v-3.5h-1c-.276 0-.5-.224-.5-.5s.224-.5.5-.5h1.5c.276 0 .5.224.5.5v2.5l2.1-2.8c.095-.126.243-.2.4-.2h7c.275 0 .5-.224.5-.5v-11c0-.276-.225-.5-.5-.5h-16c-.275 0-.5.224-.5.5v7c0 .276-.224.5-.5.5s-.5-.224-.5-.5v-7c0-.827.673-1.5 1.5-1.5h16c.827 0 1.5.673 1.5 1.5v11c0 .827-.673 1.5-1.5 1.5h-6.75l-2.85 3.8c-.096.128-.246.2-.4.2z"/><path d="m5.5 17.5c-1.654 0-3-1.346-3-3s1.346-3 3-3 3 1.346 3 3-1.346 3-3 3zm0-5c-1.103 0-2 .897-2 2s.897 2 2 2 2-.897 2-2-.897-2-2-2z"/><path d="m10.5 24c-.276 0-.5-.224-.5-.5v-2c0-.827-.673-1.5-1.5-1.5h-6c-.827 0-1.5.673-1.5 1.5v2c0 .276-.224.5-.5.5s-.5-.224-.5-.5v-2c0-1.378 1.121-2.5 2.5-2.5h6c1.379 0 2.5 1.122 2.5 2.5v2c0 .276-.224.5-.5.5z"/></svg>