<svg id="light" enable-background="new 0 0 24 24" height="512" viewBox="0 0 24 24" width="512" xmlns="http://www.w3.org/2000/svg"><path d="m12.5 18c-.053 0-.106-.009-.158-.025-.204-.069-.342-.26-.342-.475v-3.5h-1c-.276 0-.5-.224-.5-.5s.224-.5.5-.5h1.5c.276 0 .5.224.5.5v2.5l2.1-2.8c.095-.126.243-.2.4-.2h7c.275 0 .5-.225.5-.5v-11c0-.275-.225-.5-.5-.5h-16c-.275 0-.5.225-.5.5v7c0 .276-.224.5-.5.5s-.5-.224-.5-.5v-7c0-.827.673-1.5 1.5-1.5h16c.827 0 1.5.673 1.5 1.5v11c0 .827-.673 1.5-1.5 1.5h-6.75l-2.85 3.8c-.096.129-.246.2-.4.2z"/><path d="m5.5 17.5c-1.654 0-3-1.346-3-3s1.346-3 3-3 3 1.346 3 3-1.346 3-3 3zm0-5c-1.103 0-2 .897-2 2s.897 2 2 2 2-.897 2-2-.897-2-2-2z"/><path d="m10.5 24c-.276 0-.5-.224-.5-.5v-2c0-.827-.673-1.5-1.5-1.5h-6c-.827 0-1.5.673-1.5 1.5v2c0 .276-.224.5-.5.5s-.5-.224-.5-.5v-2c0-1.379 1.121-2.5 2.5-2.5h6c1.379 0 2.5 1.121 2.5 2.5v2c0 .276-.224.5-.5.5z"/><path d="m14.5 12c-2.757 0-5-2.243-5-5s2.243-5 5-5 5 2.243 5 5-2.243 5-5 5zm0-9c-2.206 0-4 1.794-4 4s1.794 4 4 4 4-1.794 4-4-1.794-4-4-4z"/><path d="m11.318 10.682c-.128 0-.256-.049-.354-.146-.195-.195-.195-.512 0-.707l3.036-3.036v-4.293c0-.276.224-.5.5-.5s.5.224.5.5v4.5c0 .133-.053.26-.146.354l-3.182 3.182c-.098.097-.226.146-.354.146z"/></svg>