<svg id="light" enable-background="new 0 0 24 24" height="512" viewBox="0 0 24 24" width="512" xmlns="http://www.w3.org/2000/svg"><path d="m3.5 22h-3c-.276 0-.5-.224-.5-.5v-9c0-.276.224-.5.5-.5 3.401 0 5.198 1.146 5.273 1.195.179.117.264.334.211.542l-2 7.886c-.055.222-.255.377-.484.377zm-2.5-1h2.111l1.808-7.13c-.562-.27-1.888-.786-3.919-.861z"/><path d="m13 24c-2.356 0-6.922-1.985-9.433-3.168-.25-.118-.357-.416-.239-.665.117-.25.417-.357.665-.239 4.145 1.952 7.428 3.072 9.007 3.072 2.433 0 8.165-2.857 9.814-3.707-.26-.339-.797-.793-1.814-.793-.923 0-2.093.37-3.225.727-1.203.38-2.448.773-3.525.773-2.064 0-4.806-.988-4.921-1.03-.26-.094-.394-.381-.299-.641.094-.259.38-.394.641-.299.026.01 2.692.97 4.579.97.923 0 2.093-.37 3.225-.727 1.203-.38 2.448-.773 3.525-.773 2.334 0 2.949 1.767 2.975 1.842.077.231-.024.485-.239.6-.311.165-7.646 4.058-10.736 4.058z"/><path d="m16.5 19.59c-.276 0-.5-.224-.5-.5v-.5c0-.698-.471-1.296-1.144-1.453l-9.653-2.331c-.269-.064-.434-.335-.369-.603s.333-.435.604-.369l9.649 2.33c1.125.262 1.913 1.26 1.913 2.426v.5c0 .276-.224.5-.5.5z"/><path d="m21.5 11h-3c-.276 0-.5-.224-.5-.5v-9c0-.276.224-.5.5-.5h3c.276 0 .5.224.5.5v9c0 .276-.224.5-.5.5zm-2.5-1h2v-8h-2z"/><path d="m15.5 11h-3c-.276 0-.5-.224-.5-.5v-5c0-.276.224-.5.5-.5h3c.276 0 .5.224.5.5v5c0 .276-.224.5-.5.5zm-2.5-1h2v-4h-2z"/><path d="m22.5 11h-11c-.276 0-.5-.224-.5-.5s.224-.5.5-.5h11c.276 0 .5.224.5.5s-.224.5-.5.5z"/></svg>