<svg id="light" enable-background="new 0 0 24 24" height="512" viewBox="0 0 24 24" width="512" xmlns="http://www.w3.org/2000/svg"><path d="m23.5 23h-23c-.276 0-.5-.224-.5-.5s.224-.5.5-.5h23c.276 0 .5.224.5.5s-.224.5-.5.5z"/><path d="m1.5 24c-.276 0-.5-.224-.5-.5v-23c0-.276.224-.5.5-.5s.5.224.5.5v23c0 .276-.224.5-.5.5z"/><path d="m19.5 6h-15c-.276 0-.5-.224-.5-.5v-4c0-.276.224-.5.5-.5h15c.276 0 .5.224.5.5v4c0 .276-.224.5-.5.5zm-14.5-1h14v-3h-14z"/><path d="m23.5 13h-19c-.276 0-.5-.224-.5-.5v-4c0-.276.224-.5.5-.5h19c.276 0 .5.224.5.5v4c0 .276-.224.5-.5.5zm-18.5-1h18v-3h-18z"/><path d="m20.5 20h-16c-.276 0-.5-.224-.5-.5v-4c0-.276.224-.5.5-.5h16c.276 0 .5.224.5.5v4c0 .276-.224.5-.5.5zm-15.5-1h15v-3h-15z"/></svg>