<svg id="light" enable-background="new 0 0 24 24" height="512" viewBox="0 0 24 24" width="512" xmlns="http://www.w3.org/2000/svg"><path d="m16 24c-4.411 0-8-3.589-8-8s3.589-8 8-8 8 3.589 8 8-3.589 8-8 8zm0-15c-3.86 0-7 3.141-7 7s3.14 7 7 7 7-3.141 7-7-3.14-7-7-7z"/><path d="m16 16.5h-7.5c-.276 0-.5-.224-.5-.5s.224-.5.5-.5h7v-7c0-.276.224-.5.5-.5s.5.224.5.5v7.5c0 .276-.224.5-.5.5z"/><path d="m7 7h-1.5c-.276 0-.5-.224-.5-.5s.224-.5.5-.5h1.5c.551 0 1-.448 1-1s-.449-1-1-1h-1.5c-.276 0-.5-.224-.5-.5v-3c0-.276.224-.5.5-.5h3c.276 0 .5.224.5.5s-.224.5-.5.5h-2.5v2h1c1.103 0 2 .897 2 2s-.897 2-2 2z"/><path d="m3.5 7h-3c-.276 0-.5-.224-.5-.5v-1c0-1.379 1.122-2.5 2.5-2.5.276 0 .5-.225.5-.5v-1c0-.275-.224-.5-.5-.5h-2c-.276 0-.5-.224-.5-.5s.224-.5.5-.5h2c.827 0 1.5.673 1.5 1.5v1c0 .827-.673 1.5-1.5 1.5s-1.5.673-1.5 1.5v.5h2.5c.276 0 .5.224.5.5s-.224.5-.5.5z"/><path d="m10.5 7c-.075 0-.151-.017-.223-.053-.247-.124-.347-.424-.224-.671l3-6c.124-.246.424-.348.671-.224s.347.424.224.671l-3 6c-.089.175-.265.277-.448.277z"/><path d="m10.75 1.5c-.414 0-.75-.337-.75-.75s.336-.75.75-.75.75.337.75.75-.336.75-.75.75z"/><path d="m13.25 7c-.414 0-.75-.337-.75-.75s.336-.75.75-.75.75.337.75.75-.336.75-.75.75z"/></svg>