<svg id="light" enable-background="new 0 0 24 24" height="512" viewBox="0 0 24 24" width="512" xmlns="http://www.w3.org/2000/svg"><path d="m23.5 23h-23c-.276 0-.5-.224-.5-.5s.224-.5.5-.5h23c.276 0 .5.224.5.5s-.224.5-.5.5z"/><path d="m1.5 24c-.276 0-.5-.224-.5-.5v-23c0-.276.224-.5.5-.5s.5.224.5.5v23c0 .276-.224.5-.5.5z"/><path d="m7 18c-1.654 0-3-1.346-3-3s1.346-3 3-3 3 1.346 3 3-1.346 3-3 3zm0-5c-1.103 0-2 .897-2 2s.897 2 2 2 2-.897 2-2-.897-2-2-2z"/><path d="m12 10c-1.654 0-3-1.346-3-3s1.346-3 3-3 3 1.346 3 3-1.346 3-3 3zm0-5c-1.103 0-2 .897-2 2s.897 2 2 2 2-.897 2-2-.897-2-2-2z"/><path d="m21 8c-1.654 0-3-1.346-3-3s1.346-3 3-3 3 1.346 3 3-1.346 3-3 3zm0-5c-1.103 0-2 .897-2 2s.897 2 2 2 2-.897 2-2-.897-2-2-2z"/><path d="m8.319 13.38c-.091 0-.183-.024-.265-.076-.234-.147-.305-.456-.158-.689l2.36-3.76c.146-.233.456-.304.689-.158.234.147.305.456.158.689l-2.36 3.76c-.095.151-.257.234-.424.234z"/><path d="m14.439 6.96c-.229 0-.436-.158-.487-.391-.061-.27.109-.537.379-.598l4.12-.92c.269-.055.537.11.597.379.061.27-.109.537-.379.598l-4.12.92c-.037.008-.073.012-.11.012z"/></svg>